<?xml version="1.0" standalone="no"?><!DOCTYPE svg PUBLIC "-//W3C//DTD SVG 1.1//EN" "http://www.w3.org/Graphics/SVG/1.1/DTD/svg11.dtd"><svg t="1690861773333" class="icon" viewBox="0 0 1024 1024" version="1.1" xmlns="http://www.w3.org/2000/svg" p-id="10105" xmlns:xlink="http://www.w3.org/1999/xlink" width="300" height="300"><path d="M276.363636 645.818182m-46.545454 0a46.545455 46.545455 0 1 0 93.090909 0 46.545455 46.545455 0 1 0-93.090909 0Z" fill="#131B40" opacity=".5" p-id="10106"></path><path d="M509.090909 482.909091m-46.545454 0a46.545455 46.545455 0 1 0 93.090909 0 46.545455 46.545455 0 1 0-93.090909 0Z" fill="#131B40" opacity=".5" p-id="10107"></path><path d="M730.181818 250.181818m-46.545454 0a46.545455 46.545455 0 1 0 93.090909 0 46.545455 46.545455 0 1 0-93.090909 0Z" fill="#131B40" opacity=".5" p-id="10108"></path><path d="M872.727273 858.181818H186.181818a11.636364 11.636364 0 0 1-11.636363-11.636363v-651.636364a11.636364 11.636364 0 0 1 23.272727 0v640h674.909091a11.636364 11.636364 0 0 1 0 23.272727z" fill="#131B40" p-id="10109"></path><path d="M302.545455 695.272727a46.545455 46.545455 0 1 1 46.545454-46.545454 46.545455 46.545455 0 0 1-46.545454 46.545454z m0-69.818182a23.272727 23.272727 0 1 0 23.272727 23.272728 23.272727 23.272727 0 0 0-23.272727-23.272728zM535.272727 532.363636a46.545455 46.545455 0 1 1 46.545455-46.545454 46.545455 46.545455 0 0 1-46.545455 46.545454z m0-69.818181a23.272727 23.272727 0 1 0 23.272728 23.272727 23.272727 23.272727 0 0 0-23.272728-23.272727zM756.363636 299.636364a46.545455 46.545455 0 1 1 46.545455-46.545455 46.545455 46.545455 0 0 1-46.545455 46.545455z m0-69.818182a23.272727 23.272727 0 1 0 23.272728 23.272727 23.272727 23.272727 0 0 0-23.272728-23.272727z" fill="#131B40" p-id="10110"></path><path d="M337.454545 637.090909a11.636364 11.636364 0 0 1-9.541818-5.003636 11.636364 11.636364 0 0 1 2.909091-16.174546l160-110.545454a11.636364 11.636364 0 0 1 13.265455 19.083636l-160 110.545455a11.636364 11.636364 0 0 1-6.632728 2.094545zM564.363636 474.181818a11.636364 11.636364 0 0 1-7.796363-3.025454 11.636364 11.636364 0 0 1-0.814546-16.407273l160-177.454546A11.636364 11.636364 0 0 1 733.090909 292.887273L572.974545 470.341818a11.636364 11.636364 0 0 1-8.610909 3.84zM314.181818 848.523636a11.636364 11.636364 0 0 1-11.636363-11.636363v-95.069091a11.636364 11.636364 0 0 1 23.272727 0v95.069091a11.636364 11.636364 0 0 1-11.636364 11.636363zM556.567273 848.523636a11.636364 11.636364 0 0 1-11.636364-11.636363V578.909091a11.636364 11.636364 0 0 1 23.272727 0v257.978182a11.636364 11.636364 0 0 1-11.636363 11.636363zM779.636364 848.523636a11.636364 11.636364 0 0 1-11.636364-11.636363V381.090909a11.636364 11.636364 0 0 1 23.272727 0v455.796364a11.636364 11.636364 0 0 1-11.636363 11.636363z" fill="#131B40" p-id="10111"></path></svg>