<?xml version="1.0" standalone="no"?><!DOCTYPE svg PUBLIC "-//W3C//DTD SVG 1.1//EN" "http://www.w3.org/Graphics/SVG/1.1/DTD/svg11.dtd"><svg t="1692323765297" class="icon" viewBox="0 0 1024 1024" version="1.1" xmlns="http://www.w3.org/2000/svg" p-id="34575" xmlns:xlink="http://www.w3.org/1999/xlink" width="300" height="300"><path d="M756.780471 460.925764 267.218506 460.925764c-112.01519 0-202.818265 90.809215-202.818265 202.818265l0 55.95029c0 112.00905 90.802052 202.817242 202.818265 202.817242l489.561965 0c112.008027 0 202.817242-90.808192 202.817242-202.817242l0-55.95029C959.597713 551.73498 868.788497 460.925764 756.780471 460.925764zM903.647423 698.712449c0 100.426247-81.411171 181.837418-181.836395 181.837418L302.187949 880.549867c-100.425224 0-181.836395-81.412195-181.836395-181.837418l0-13.986549c0-100.426247 81.411171-181.837418 181.836395-181.837418l419.62308 0c100.426247 0 181.836395 81.411171 181.836395 181.837418L903.647423 698.712449z" fill="#2c2c2c" p-id="34576"></path><path d="M582.136895 312.390823c101.301174-95.16236 0-164.230412 0-164.230412-89.023546-47.579645-135.070278 0-135.070278 0-98.233302 55.258535-23.024389 167.302377-23.024389 167.302377-95.16236 62.930261-65.999157 147.348929-65.999157 147.348929l56.790424 0c-4.604878-19.951401-10.743692-108.97904 97.290837-110.512976 108.032482-1.534959 94.569866 108.976994 94.569866 108.976994l55.256488 3.069919C692.647825 376.856044 582.136895 312.390823 582.136895 312.390823zM512.124332 297.984718c-36.972053 0-66.942645-29.971615-66.942645-66.942645s29.970592-66.942645 66.942645-66.942645c36.97103 0 66.942645 29.971615 66.942645 66.942645S549.095361 297.984718 512.124332 297.984718z" fill="#2c2c2c" p-id="34577"></path><path d="M582.136895 728.597083c101.301174-95.16236 0-164.230412 0-164.230412-89.023546-47.579645-135.070278 0-135.070278 0-98.233302 55.257511-23.024389 167.301354-23.024389 167.301354-95.16236 62.931285-65.999157 147.348929-65.999157 147.348929l56.790424 0c-4.604878-19.951401-10.743692-108.97904 97.290837-110.512976 108.032482-1.533936 94.569866 108.976994 94.569866 108.976994l55.256488 3.068895C692.647825 793.062304 582.136895 728.597083 582.136895 728.597083zM512.124332 714.190979c-36.972053 0-66.942645-29.970592-66.942645-66.942645s29.970592-66.942645 66.942645-66.942645c36.97103 0 66.942645 29.970592 66.942645 66.942645S549.095361 714.190979 512.124332 714.190979z" fill="#2c2c2c" p-id="34578"></path></svg>