<?xml version="1.0" standalone="no"?><!DOCTYPE svg PUBLIC "-//W3C//DTD SVG 1.1//EN" "http://www.w3.org/Graphics/SVG/1.1/DTD/svg11.dtd"><svg t="1691563556547" class="icon" viewBox="0 0 1024 1024" version="1.1" xmlns="http://www.w3.org/2000/svg" p-id="13137" xmlns:xlink="http://www.w3.org/1999/xlink" width="300" height="300"><path d="M524.288 588.458667m-307.2 0a307.2 307.2 0 1 0 614.4 0 307.2 307.2 0 1 0-614.4 0Z" fill="#E9EAEB" p-id="13138"></path><path d="M566.613333 259.413333h95.573334v286.72h-95.573334z" fill="#A3D4FF" p-id="13139"></path><path d="M675.84 546.133333h-27.306667V273.066667h-68.266666v273.066666h-27.306667V245.76h122.88z" fill="#2A5082" p-id="13140"></path><path d="M211.626667 177.493333h95.573333v368.64h-95.573333z" fill="#A3D4FF" p-id="13141" data-spm-anchor-id="a313x.search_index.0.i10.44c73a81BksjVd" class="selected"></path><path d="M320.853333 546.133333h-27.306666V191.146667h-68.266667v354.986666h-27.306667V163.84h122.88z" fill="#2A5082" p-id="13142"></path><path d="M389.12 382.293333h95.573333v163.84h-95.573333z" fill="#A3D4FF" p-id="13143"></path><path d="M498.346667 546.133333h-27.306667V395.946667h-68.266667v150.186666h-27.306666V368.64h122.88z" fill="#2A5082" p-id="13144"></path><path d="M744.106667 436.906667h95.573333v109.226666h-95.573333z" fill="#A3D4FF" p-id="13145"></path><path d="M853.333333 546.133333h-27.306666v-95.573333h-68.266667v95.573333h-27.306667v-122.88h122.88z" fill="#2A5082" p-id="13146"></path><path d="M512 628.053333h95.573333v68.266667h-95.573333z" fill="#E9EAEB" p-id="13147"></path><path d="M621.226667 709.973333h-122.88v-81.92h27.306666v54.613334h68.266667v-54.613334h27.306667z" fill="#2A5082" p-id="13148"></path><path d="M143.36 628.053333h95.573333v259.413334H143.36z" fill="#E9EAEB" p-id="13149"></path><path d="M252.586667 901.12H129.706667V628.053333h27.306666v245.76h68.266667V628.053333h27.306667z" fill="#2A5082" p-id="13150"></path><path d="M320.853333 628.053333h95.573334v136.533334h-95.573334z" fill="#E9EAEB" p-id="13151"></path><path d="M430.08 778.24h-122.88V628.053333h27.306667v122.88h68.266666v-122.88h27.306667z" fill="#2A5082" p-id="13152"></path><path d="M675.84 628.053333h95.573333v163.84h-95.573333z" fill="#E9EAEB" p-id="13153"></path><path d="M785.066667 805.546667h-122.88V628.053333h27.306666v150.186667h68.266667V628.053333h27.306667z" fill="#2A5082" p-id="13154"></path><path d="M812.373333 204.8h27.306667v81.92h-27.306667z" fill="#BCC0C4" p-id="13155"></path><path d="M785.066667 232.106667h81.92v27.306666h-81.92zM675.84 122.88h27.306667v81.92h-27.306667z" fill="#BCC0C4" p-id="13156"></path><path d="M648.533333 150.186667h81.92v27.306666h-81.92zM689.493333 887.466667h81.92v27.306666h-81.92zM525.653333 805.546667h81.92v27.306666h-81.92z" fill="#BCC0C4" p-id="13157"></path><path d="M157.013333 573.44h737.28v27.306667H157.013333zM75.093333 573.44h54.613334v27.306667H75.093333zM921.6 573.44h27.306667v27.306667h-27.306667z" fill="#2A5082" p-id="13158"></path></svg>