<?xml version="1.0" standalone="no"?><!DOCTYPE svg PUBLIC "-//W3C//DTD SVG 1.1//EN" "http://www.w3.org/Graphics/SVG/1.1/DTD/svg11.dtd"><svg t="1690528994806" class="icon" viewBox="0 0 1024 1024" version="1.1" xmlns="http://www.w3.org/2000/svg" p-id="3112" xmlns:xlink="http://www.w3.org/1999/xlink" width="300" height="300"><path d="M512 384v-64H256v64h96v64h-96v64h96v64h64v-64h96v-64h-96v-64zM288 256h64v64h-64zM416 256h64v64h-64zM128 128h64v768h-64zM832 128h64v320h-64z" p-id="3113"></path><path d="M512 896H128v-64H512zM512 768H256v-64h256zM640 640v256h-64V640zM768 576v320h-64V576zM896 512v384h-64V512zM896 192H128v-64H896z" p-id="3114"></path></svg>