<?xml version="1.0" standalone="no"?><!DOCTYPE svg PUBLIC "-//W3C//DTD SVG 1.1//EN" "http://www.w3.org/Graphics/SVG/1.1/DTD/svg11.dtd"><svg t="1700211716606" class="icon" viewBox="0 0 1280 1024" version="1.1" xmlns="http://www.w3.org/2000/svg" p-id="4186" xmlns:xlink="http://www.w3.org/1999/xlink" width="40" height="32"><path d="M960 64H320c-70 0-128 58-128 128v640c0 70 58 128 128 128h640c70 0 128-58 128-128V192c0-70-58-128-128-128z m32 768c0 18-14 32-32 32H320c-18 0-32-14-32-32V192c0-18 14-32 32-32h640c18 0 32 14 32 32v640z m-224-160h-80V304c0-18-10-34-26-42-14-8-34-8-48 2l-104 70c-22 14-28 44-14 66s44 28 66 14l30-20v278h-80c-26 0-48 22-48 48s22 48 48 48h256c26 0 48-22 48-48s-22-48-48-48z" p-id="4187"></path></svg>