<?xml version="1.0" standalone="no"?><!DOCTYPE svg PUBLIC "-//W3C//DTD SVG 1.1//EN" "http://www.w3.org/Graphics/SVG/1.1/DTD/svg11.dtd"><svg t="1690957324225" class="icon" viewBox="0 0 1024 1024" version="1.1" xmlns="http://www.w3.org/2000/svg" p-id="5071" xmlns:xlink="http://www.w3.org/1999/xlink" width="300" height="300"><path d="M294.4 687.68a45.44 45.44 0 0 0 0 6.4 24.32 24.32 0 0 0 1.92 5.12c17.6 52.8 117.44 77.44 211.2 77.44s193.92-24.64 211.52-77.44a24 24 0 0 0 0-5.12 22.72 22.72 0 0 0 0-6.4V343.04v-1.6-2.88c0-64-111.04-94.08-214.4-94.08s-214.4 29.44-214.4 94.08v4.48zM672 507.84c0 10.24-53.12 43.2-163.2 43.2s-162.24-32-163.2-43.2v-105.28a398.4 398.4 0 0 0 163.2 30.4 396.16 396.16 0 0 0 163.2-30.4z m-163.2 217.6c-109.44 0-162.24-32-163.2-43.2v-110.4a398.4 398.4 0 0 0 163.2 30.4 396.16 396.16 0 0 0 163.2-30.4v110.4c0 10.24-53.44 43.2-163.2 43.2z m0-429.76c109.76 0 162.24 32 163.2 42.88s-53.44 43.2-163.2 43.2-162.24-32-163.2-43.2 53.76-42.88 163.2-42.88z" p-id="5072"></path><path d="M721.28 855.04A401.6 401.6 0 0 1 167.04 306.24V352a25.6 25.6 0 1 0 51.2 0V248A25.6 25.6 0 0 0 192 224H88.32a25.6 25.6 0 0 0 0 51.2H128a452.8 452.8 0 0 0 620.8 624.96 25.6 25.6 0 1 0-26.56-43.52zM922.88 764.48h-35.2A453.12 453.12 0 0 0 256 138.56a25.92 25.92 0 0 0-6.4 35.84 25.6 25.6 0 0 0 35.52 6.4 401.6 401.6 0 0 1 559.68 556.8v-50.56a25.6 25.6 0 1 0-51.2 0v103.04a25.6 25.6 0 0 0 25.6 25.6h104.32a25.6 25.6 0 1 0 0-51.2z" p-id="5073"></path></svg>