<svg xmlns="http://www.w3.org/2000/svg" fill="none" viewBox="0 0 48 48" class="design-iconfont">
  <mask id="ggfoqmj77a" style="mask-type:alpha" maskUnits="userSpaceOnUse" x="0" y="0" width="48" height="48">
    <path d="M48 0H0L48 48V0Z" fill="#C4C4C4"/>
  </mask>
  <g mask="url(#ggfoqmj77a)">
    <path d="M43.6215 28.469V23.7241H48.3124V28.469H43.6215ZM43.6215 0H48.3124V18.9793H43.6215V0ZM34.2397 9.48966H38.9306V28.469H34.2397V9.48966ZM34.2397 0H38.9306V4.74483H34.2397V0ZM48.3124 47.4483H34.2397V33.2138H48.3124V47.4483ZM43.6215 37.9586H38.9306V42.7034H43.6215V37.9586ZM10.7851 42.7034H29.5488V47.4483H10.7851V42.7034ZM24.8579 33.2138H29.5488V37.9586H24.8579V33.2138ZM1.40332 0H29.5488V28.469H1.40332V0ZM6.09423 23.7241H24.8579V4.74483H6.09423V23.7241ZM10.7851 9.48966H20.167V18.9793H10.7851V9.48966ZM20.167 37.9586H1.40332V33.2138H20.167V37.9586ZM6.09423 47.4483H1.40332V42.7034H6.09423V47.4483Z" fill="#c4272e"/>
  </g>
</svg>
