<?xml version="1.0" standalone="no"?><!DOCTYPE svg PUBLIC "-//W3C//DTD SVG 1.1//EN" "http://www.w3.org/Graphics/SVG/1.1/DTD/svg11.dtd"><svg t="1689232964357" class="icon" viewBox="0 0 1024 1024" version="1.1" xmlns="http://www.w3.org/2000/svg" p-id="6811" xmlns:xlink="http://www.w3.org/1999/xlink" width="300" height="300"><path d="M222.8 577.4c4.4 3.9 9.8 5.8 15.2 5.8 6.3 0 12.7-2.6 17.2-7.7l107.3-120.7L483.1 562c4.8 4.3 11.3 6.4 17.7 5.7 6.4-0.7 12.3-4 16.1-9.3l134.3-183.2 8.2 65.2c1.5 11.6 11.4 20.1 22.8 20.1 1 0 1.9-0.1 2.9-0.2 12.6-1.6 21.5-13.1 19.9-25.7l-15.3-122.5c0-0.1 0-0.3-0.1-0.4 0-0.1 0-0.3-0.1-0.4 0-0.3-0.1-0.5-0.1-0.8 0-0.1 0-0.2-0.1-0.3-0.1-0.3-0.1-0.6-0.2-0.9v-0.2l-0.3-0.9v-0.1c-0.1-0.3-0.2-0.7-0.3-1v-0.1c-0.1-0.3-0.2-0.6-0.4-0.9 0 0 0-0.1-0.1-0.1-0.1-0.3-0.2-0.6-0.4-0.9 0-0.1-0.1-0.2-0.1-0.3-0.1-0.2-0.2-0.5-0.3-0.7-0.1-0.2-0.2-0.3-0.3-0.5-0.1-0.1-0.2-0.3-0.3-0.4-0.1-0.2-0.3-0.5-0.4-0.7 0-0.1-0.1-0.1-0.1-0.2-1.5-2.3-3.4-4.3-5.7-6l-0.9-0.6c-0.2-0.1-0.3-0.2-0.5-0.3-0.5-0.3-1.1-0.6-1.6-0.9-0.1-0.1-0.2-0.1-0.3-0.2-0.5-0.3-1.1-0.5-1.6-0.7-0.2-0.1-0.3-0.1-0.5-0.2-0.5-0.2-0.9-0.3-1.4-0.5l-0.9-0.3c-0.3-0.1-0.6-0.2-1-0.2-0.5-0.1-1-0.2-1.4-0.3-0.2 0-0.3-0.1-0.5-0.1-0.6-0.1-1.3-0.1-1.9-0.2h-0.2c-1.2 0-2.5 0-3.7 0.1l-122.5 15.3c-12.6 1.6-21.5 13.1-19.9 25.7 1.6 12.6 13.1 21.5 25.7 19.9l69.6-8.7-122 166.4-119-105.8c-9.5-8.4-24-7.6-32.4 1.9L220.8 544.9c-8.4 9.5-7.5 24 2 32.5z" fill="#353637" p-id="6812"></path><path d="M843 564.2V192.6c0-54.9-44.7-99.6-99.6-99.6H192.1c-54.9 0-99.6 44.7-99.6 99.6v612.7c0 54.9 44.7 99.6 99.6 99.6h478.8c22.4 9.2 46.9 14.3 72.6 14.3 105.6 0 191.5-85.9 191.5-191.5 0-69.2-36.9-129.9-92-163.5zM192.1 858.9c-29.6 0-53.6-24.1-53.6-53.6V192.6c0-29.6 24.1-53.6 53.6-53.6h551.4c29.6 0 53.6 24.1 53.6 53.6v351.3c-17-5-35-7.6-53.6-7.6-90.1 0-165.8 62.6-186.1 146.5H238c-12.7 0-23 10.3-23 23s10.3 23 23 23h314c0 49 19 95.4 51.3 130.2H192.1z m551.4 14.3c-80.2 0-145.5-65.3-145.5-145.5v-3.4c2.3-78.2 66.7-141.1 145.4-141.1 23.1 0 45.3 5.4 66.1 16l14.7 7.5c39 26.1 64.7 70.6 64.7 121 0.1 80.2-65.2 145.5-145.4 145.5z" fill="#353637" p-id="6813"></path><path d="M819.4 756.3L766.7 726l-0.1-61.6c0-12.7-10.3-22.9-23-22.9s-23 10.3-22.9 23l0.1 61.5-53 30.1c-11 6.3-14.9 20.3-8.6 31.3 4.2 7.4 12 11.6 20 11.6 3.8 0 7.7-1 11.3-3l53.4-30.3 52.8 30.3c3.6 2.1 7.5 3.1 11.4 3.1 8 0 15.7-4.1 19.9-11.5 6.2-11 2.4-25-8.6-31.3z" fill="#353637" p-id="6814"></path></svg>