<?xml version="1.0" standalone="no"?><!DOCTYPE svg PUBLIC "-//W3C//DTD SVG 1.1//EN" "http://www.w3.org/Graphics/SVG/1.1/DTD/svg11.dtd"><svg t="1689305305824" class="icon" viewBox="0 0 1024 1024" version="1.1" xmlns="http://www.w3.org/2000/svg" p-id="7238" xmlns:xlink="http://www.w3.org/1999/xlink" width="300" height="300"><path d="M531.017143 241.371429a43.885714 43.885714 0 0 0-43.885714 43.885714v277.942857a43.885714 43.885714 0 0 0 43.885714 43.885714 43.885714 43.885714 0 0 0 43.885714-43.885714V285.257143a43.885714 43.885714 0 0 0-43.885714-43.885714z" fill="#BFCBD9" p-id="7239"></path><path d="M531.017143 519.314286h-204.8a43.885714 43.885714 0 1 0 0 87.771428h204.8a43.885714 43.885714 0 1 0 0-87.771428z" fill="#BFCBD9" p-id="7240"></path><path d="M658.285714 738.742857m43.885715 0l277.942857 0q43.885714 0 43.885714 43.885714l0 0q0 43.885714-43.885714 43.885715l-277.942857 0q-43.885714 0-43.885715-43.885715l0 0q0-43.885714 43.885715-43.885714Z" fill="#BFCBD9" p-id="7241"></path><path d="M658.285714 936.228571m43.885715 0l277.942857 0q43.885714 0 43.885714 43.885715l0 0q0 43.885714-43.885714 43.885714l-277.942857 0q-43.885714 0-43.885715-43.885714l0 0q0-43.885714 43.885715-43.885715Z" fill="#BFCBD9" p-id="7242"></path><path d="M1024 512a512 512 0 1 0-512 512 43.885714 43.885714 0 1 0 0-87.771429A424.228571 424.228571 0 1 1 936.228571 512 43.885714 43.885714 0 1 0 1024 512z" fill="#BFCBD9" p-id="7243"></path></svg>