<?xml version="1.0" standalone="no"?><!DOCTYPE svg PUBLIC "-//W3C//DTD SVG 1.1//EN" "http://www.w3.org/Graphics/SVG/1.1/DTD/svg11.dtd"><svg t="1688988174316" class="icon" viewBox="0 0 1024 1024" version="1.1" xmlns="http://www.w3.org/2000/svg" p-id="3262" xmlns:xlink="http://www.w3.org/1999/xlink" width="300" height="300"><path d="M989.236131 966.780742c14.509149 0 26.272116 11.762967 26.272116 26.272116s-11.762967 26.272116-26.272116 26.272117H51.689658c-12.302895 0-23.498007-5.045527-31.622982-13.164917l-0.1024-0.1024c-8.119389-8.124975-13.164916-19.320087-13.164916-31.622982V53.428596c0-14.509149 11.762967-26.272116 26.272116-26.272116s26.272116 11.762967 26.272117 26.272116v913.352146h929.892538z" p-id="3263"></path><path d="M120.327447 787.388975c-10.779927 14.462604 2.087098 34.7136 19.833949 31.051403 4.745775-0.996073 8.882735-3.634269 11.783448-7.525469l186.83904-251.110865 207.948334 187.155549 240.489193-332.101818 81.77664 59.216989 43.767622-266.182284-239.174749 124.680378 81.711476 59.170444-214.781207 296.602531-207.531288-186.775738L120.327447 787.388975z" p-id="3264"></path></svg>