<?xml version="1.0" standalone="no"?><!DOCTYPE svg PUBLIC "-//W3C//DTD SVG 1.1//EN" "http://www.w3.org/Graphics/SVG/1.1/DTD/svg11.dtd"><svg t="1692240108907" class="icon" viewBox="0 0 1172 1024" version="1.1" xmlns="http://www.w3.org/2000/svg" p-id="22885" xmlns:xlink="http://www.w3.org/1999/xlink" width="343.359375" height="300"><path d="M1044.6858 501.420528c20.91325 0 37.927007 17.013757 37.927007 37.92579V904.813693c0 20.91325-17.013757 37.925791-37.927007 37.925791H541.305795c-20.91325 0-37.927007-17.013757-37.927007-37.925791V539.346318c0-20.91325 17.013757-37.925791 37.927007-37.92579h503.380005m0-44.821058H541.305795c-45.70045 0-82.748064 37.047614-82.748064 82.746848V904.813693c0 45.70045 37.047614 82.746848 82.748064 82.746848h503.380005c45.70045 0 82.746848-37.047614 82.746848-82.746848V539.346318c0.001216-45.699234-37.046398-82.746848-82.746848-82.746848z" fill="#4E4D4D" p-id="22886"></path><path d="M900.964069 810.614061c0 1.502144-1.190768 3.631904-3.56744 6.384416-24.410144 28.291392-54.641552 42.435872-90.693007 42.435872-37.5536 0-67.597696-13.707824-90.129856-41.122256-21.030016-25.536448-31.545024-57.457312-31.545024-95.762591 0-38.30528 10.70232-70.348991 32.108176-96.138432 22.781504-27.790272 52.886415-41.685408 90.317167-41.685408 37.92944 0 67.283887 12.833297 88.06456 38.492592 2.000831 2.628448 3.004288 4.82024 3.004288 6.571728 0 2.12976-3.318096 8.42052-9.951856 18.871064-6.636192 10.452976-10.641504 15.679464-12.017152 15.679464-1.62864 0-5.445424-3.06632-11.454-9.200176-7.387873-7.51072-14.33544-13.144672-20.842704-16.899424-10.768001-6.13264-22.658656-9.200176-35.676832-9.200175-24.785984 0-44.064512 9.453168-57.833151 28.353423-12.268928 16.899424-18.401568 38.182432-18.401568 63.841728 0 25.662944 6.070608 47.130832 18.214256 64.404879 13.76864 19.405024 32.982703 29.105104 57.64584 29.105104 12.266496 0 24.096336-3.06632 35.488303-9.200175 7.51072-4.004096 15.144287-9.70008 22.908-17.086736 6.507263-6.13264 10.074703-9.200176 10.703536-9.200176 0.750464 0 4.882272 4.975928 12.392992 14.927784 7.509504 9.949423 11.265472 15.427688 11.265472 16.427495z" fill="#4E4D4D" p-id="22887"></path><path d="M684.413289 434.188942a74.888263 74.888263 0 0 1-7.499773-27.134681c0.103386-2.038537 0.155688-4.090454 0.155688-6.154533 0-12.371098-10.028484-22.398366-22.399582-22.398366-0.071762 0-0.141092 0.00973-0.214071 0.010947-0.071762-0.001216-0.141092-0.010947-0.214071-0.010947-12.369882 0-22.399582 10.028484-22.399581 22.398366 0 2.06408 0.052301 4.115996 0.155687 6.154533a74.936916 74.936916 0 0 1-7.499773 27.134681h59.915476z" fill="#4E4D4D" p-id="22888"></path><path d="M436.147202 904.814909v-6.89405H231.012717c-20.91325 0-37.927007-17.013757-37.927007-37.927007V517.829778c28.44708-6.819855 52.994667-23.77523 69.593661-46.823105 21.848593 30.338443 57.465826 50.130255 97.622331 50.130255 40.553022 0 76.476765-20.182247 98.265759-51.027892 0.550989 0.779655 1.116573 1.547147 1.684591 2.312207a105.806887 105.806887 0 0 1 35.226797-27.708779c-8.852311-12.361368-14.08488-27.482545-14.084881-43.81152 0-12.371098-10.028484-22.398366-22.399582-22.398365-0.144741 0-0.2834 0.019461-0.428141 0.021893-0.144741-0.002433-0.2834-0.021894-0.428141-0.021893-12.369882 0-22.399582 10.028484-22.399582 22.398365 0 41.596617-33.841419 75.439252-75.438036 75.439252-39.521591 0-72.018986-30.556163-75.165582-69.28107 0.103386-2.039753 0.155688-4.092886 0.155687-6.156965 0-12.371098-10.028484-22.398366-22.399581-22.398366-0.071762 0-0.142308 0.00973-0.214071 0.010947-0.072979-0.001216-0.142308-0.010947-0.214071-0.010947-12.369882 0-22.399582 10.028484-22.399582 22.398366 0 2.065296 0.052301 4.117212 0.155688 6.156965-3.14538 38.724907-35.643991 69.28107-75.165582 69.28107-40.799933 0-74.117122-32.565509-75.377221-73.065013 0.341783-0.051085 0.526663-0.099737 0.518149-0.145957l81.736094-223.831617c6.47199-16.747385 14.262462-35.167198 23.058822-45.441376 5.343254-6.240891 9.650211-8.244155 17.726515-8.244155h491.696122c8.419304 0 13.044935 2.044619 18.332238 8.105496 9.342484 10.707185 17.1512 30.761719 22.21227 44.913497l0.051086 0.141092 0.051085 0.141092 81.875969 224.217187c-0.008514 0.04622 0.177581 0.094872 0.519365 0.145958a74.951511 74.951511 0 0 1-7.72844 30.91619h47.888594a119.851629 119.851629 0 0 0 4.698609-33.289213c0-0.544907-0.043787-1.078868-0.081493-1.614045 0.029191-0.862364 0.071762-1.72108 0.071762-2.590742l-85.141764-233.158289c-17.083087-47.771828-37.047614-82.746848-82.748064-82.746848H212.7194c-45.70045 0-64.783152 36.192548-82.746848 82.746848l-85.141764 233.158289c0 0.869662 0.042571 1.728378 0.071762 2.590742-0.038922 0.535177-0.081493 1.069137-0.081493 1.614045 0 60.600259 45.067968 110.864308 103.444811 119.057378v340.036746c0 45.70045 37.047614 82.748064 82.748065 82.748064H443.227348a104.672069 104.672069 0 0 1-7.080146-37.930656z" fill="#4E4D4D" p-id="22889"></path></svg>