<?xml version="1.0" standalone="no"?><!DOCTYPE svg PUBLIC "-//W3C//DTD SVG 1.1//EN" "http://www.w3.org/Graphics/SVG/1.1/DTD/svg11.dtd"><svg t="1688521997191" class="icon" viewBox="0 0 1024 1024" version="1.1" xmlns="http://www.w3.org/2000/svg" p-id="9037" xmlns:xlink="http://www.w3.org/1999/xlink" width="300" height="300"><path d="M511.6 89.1c27.3 0 88.9 64.9 114.9 73.3 26 8.4 114.2-8.1 136.3 7.8 22.1 15.9 33.5 104.4 49.6 126.4s97.2 60.1 105.6 85.9c8.4 25.8-34.6 104.1-34.6 131.2 0 27.1 43.1 105.4 34.6 131.2-8.4 25.8-89.6 64-105.6 85.9-16 21.9-27.5 110.4-49.6 126.4-22.1 15.9-110.3-0.6-136.3 7.8-26 8.4-87.6 73.3-114.9 73.3s-88.9-64.9-114.9-73.3c-26-8.4-114.2 8.1-136.3-7.8-22.1-15.9-33.5-104.4-49.6-126.4-16-21.9-97.2-60.1-105.6-85.9-8.4-25.8 34.6-104.1 34.6-131.2 0-27.1-43.1-105.4-34.6-131.2 8.4-25.8 89.6-64 105.6-85.9 16-21.9 27.5-110.4 49.6-126.4 22.1-15.9 110.3 0.6 136.3-7.8 26-8.4 87.6-73.3 114.9-73.3z" fill="#91DDFF" p-id="9038"></path><path d="M688.1 336.6c-9.9-9.6-25.7-9.4-35.3 0.5L429.2 560.8c-9.9 9.6-10.1 25.4-0.5 35.3 9.6 9.9 25.4 10.1 35.3 0.5l0.5-0.5 223.7-223.7c9.9-9.6 10.1-25.4 0.5-35.3-0.2-0.2-0.4-0.3-0.6-0.5zM405.6 619.1c-9.9-9.6-25.7-9.4-35.3 0.5L335 655c-9.9 9.6-10.1 25.4-0.5 35.3 9.6 9.9 25.4 10.1 35.3 0.5l0.5-0.5 35.3-35.3c9.9-9.6 10.1-25.4 0.5-35.3-0.1-0.2-0.3-0.4-0.5-0.6zM611.5 547c-45.7 0-83.2 37.6-83.2 83.2s37.6 83.2 83.2 83.2 83.2-37.6 83.2-83.2-37.6-83.2-83.2-83.2z m0 49.9c18.7 0 33.3 14.6 33.3 33.3 0 18.7-14.6 33.3-33.3 33.3-18.7 0-33.3-14.6-33.3-33.3 0-18.7 14.6-33.3 33.3-33.3zM411.7 313.9c-45.7 0-83.2 37.6-83.2 83.2s37.6 83.2 83.2 83.2 83.2-37.6 83.2-83.2-37.5-83.2-83.2-83.2z m0 50c18.7 0 33.3 14.6 33.3 33.3s-14.6 33.3-33.3 33.3-33.3-14.6-33.3-33.3 14.6-33.3 33.3-33.3z" fill="#FFFFFF" p-id="9039"></path><path d="M716.7 162.9c-13.6 0.1-24.9 0.7-38.7 1.3 34.7 58.2 49.9 136 61.2 178.2 5 18.8 77.9 50.7 84.4 70.6 6.5 19.8-26.6 79.9-26.6 100.8s33.1 80.9 26.6 100.8c-6.5 19.8-68.8 49.1-81.1 66-12.3 16.9-21.1 84.8-38.1 97.1-17 12.2-84.7-0.4-104.6 6S532.5 840 511.6 840s-76.4-57.3-92.8-57.6c-70.2-1.1-116.3 6.3-191.2-2.1 9.3 32.9 19 67 32.9 77.1 22.1 15.9 110.3-0.5 136.3 7.8 26 8.4 87.5 73.3 114.8 73.3 27.3 0 88.9-64.9 114.8-73.3 26-8.4 114.2 8.1 136.3-7.8S796.2 753 812.3 731c16-21.9 97.2-60.1 105.6-85.9 8.4-25.8-34.6-104.1-34.6-131.2 0-27.1 43.1-105.4 34.6-131.2-8.4-25.8-89.6-64-105.6-85.9-16-21.9-27.5-110.4-49.6-126.4-8.3-6.2-25.9-7.6-46-7.5z" fill="#52C7FC" p-id="9040"></path><path d="M511.6 64.2c-49.6 5.7-80.4 52.6-122.6 74.5-47.1 7-99.6-13.1-143.2 11.4-36.6 33.7-34 89.5-55.1 131.9-33.9 33.2-88.2 47.6-109.1 92.9-9.7 48.8 25.4 92.2 33.4 138.9-8 46.7-43.1 90.1-33.4 138.9 20.9 45.3 75.2 59.7 109.1 92.9 21.1 42.4 18.6 98.2 55.1 131.9 43.6 24.4 96.2 4.3 143.2 11.4 42.2 21.8 73 68.8 122.6 74.5 49.5-5.7 80.4-52.7 122.6-74.5 47.4-8.6 98.7 6.7 144-11.7 22.5-14.8 3.3-52.9-22-43.8-57.6 11.5-126-15-173.7 29.8-24.7 13.3-51.8 54-77.5 47.2-47-24.9-82.8-81.7-142.7-72.4-27.8-3.7-73.7 13.5-90.5-7.1-23.3-47.6-18.7-114.5-72.6-142-20.3-19.2-67.5-32.1-69-58.6 9.2-52.2 52.6-103.4 25.2-157.2-5.1-27.4-35.6-65.5-21.2-87.8 38.3-36.8 103.6-52.8 113.4-112.5 12.2-25.2 10-73.9 34.8-83.4 52.8-7.3 115.1 17.8 158.2-24.7 24.7-13.3 51.7-53.9 77.5-47.1 47 24.9 82.8 81.7 142.7 72.5 27.8 3.7 73.7-13.5 90.5 7.1 23.4 47.6 18.7 114.5 72.6 141.9 20.3 19.3 67.6 32.1 69 58.7-9.3 52.1-52.6 103.3-25.2 157.2 5.1 27.4 35.6 65.5 21.2 87.8-36.8 36-99.6 50.9-112.2 107-8.4 17.2-13 47.2 11.4 53.4 23.8 6.7 34.7-20.7 37.5-39.2 11.5-39.2 59.3-48.6 86.5-75.2 32.9-18.6 39.1-59.7 23.8-92.1-10.8-39.5-42-80.2-16.1-120.6 11.7-37.5 40.9-83.8 11-119.9-28.5-30-67.7-46.5-98.4-73.9-21.1-42.4-18.6-98.2-55.1-131.9-43.6-24.4-96.2-4.3-143.2-11.4-42-21.9-73.2-69.3-122.5-74.8z" fill="#444852" p-id="9041"></path></svg>