<?xml version="1.0" standalone="no"?><!DOCTYPE svg PUBLIC "-//W3C//DTD SVG 1.1//EN" "http://www.w3.org/Graphics/SVG/1.1/DTD/svg11.dtd"><svg t="1700273094744" class="icon" viewBox="0 0 1024 1024" version="1.1" xmlns="http://www.w3.org/2000/svg" p-id="5962" xmlns:xlink="http://www.w3.org/1999/xlink" width="32" height="32"><path d="M322 307h380v60H322zM322 426.796h200v60H322z" fill="#787878" p-id="5963"></path><path d="M192 162v700h220v-60H252V222h520v225h60V162z" fill="#787878" p-id="5964"></path><path d="M772 489.054H669.365l-52.929 52.928-157.383 157.384 6.71 6.71 155 155 0.925 0.925L772 711.688v0.001l59.999-60V549.053l0.001-60-60 0.001zM621.688 777.148l-77.782-77.782 150.313-150.313H772v77.782L621.688 777.148z" fill="#787878" p-id="5965"></path><path d="M664.786 614.625l42.426-42.426 42.426 42.426-42.426 42.426z" fill="#787878" p-id="5966"></path></svg>