<svg width="1024" height="1024" xmlns="http://www.w3.org/2000/svg" p-id="51355" version="1.1" class="icon" t="1700295529592">

 <g>
  <title>Layer 1</title>
  <path id="svg_1" p-id="51356" d="m824.76331,63.79189l-626.64202,0c-74.18765,0 -134.88711,56.8907 -134.88711,126.42436l0,643.56852c0,69.53366 60.69946,126.42437 134.88711,126.42437l626.64202,0c74.18765,0 134.8871,-56.89071 134.8871,-126.42437l0,-643.56954c-0.00102,-69.53264 -60.69945,-126.42334 -134.8871,-126.42334zm88.80762,767.46429c0,45.58011 -39.78921,82.87246 -88.41979,82.87246l-627.41871,0c-48.63058,0 -88.41979,-37.29235 -88.41979,-82.87245l0,-638.5134c0,-45.5801 39.78921,-82.87245 88.41979,-82.87245l627.41769,0c48.63058,0 88.41979,37.29235 88.41979,82.87245l0,638.51339l0.00102,0z"/>
  <text style="cursor: move;" transform="matrix(13.9583 0 0 10.0447 -6247.3 -3676.54)" stroke="null" xml:space="preserve" text-anchor="start" font-family="Noto Sans JP" font-size="24" stroke-width="0" fill="#000000" id="svg_6" y="424" x="473">尾</text>
 </g>
</svg>