<?xml version="1.0" standalone="no"?><!DOCTYPE svg PUBLIC "-//W3C//DTD SVG 1.1//EN" "http://www.w3.org/Graphics/SVG/1.1/DTD/svg11.dtd"><svg t="1689057708356" class="icon" viewBox="0 0 1024 1024" version="1.1" xmlns="http://www.w3.org/2000/svg" p-id="5512" xmlns:xlink="http://www.w3.org/1999/xlink" width="300" height="300"><path d="M952.734 586.791l-0.054-0.009c0 0.028-0.008 0.057-0.013 0.086a30.015 30.015 0 1 1-59.167-10.117c0.1-0.586 0.221-1.162 0.353-1.734A389.324 389.324 0 0 0 899 511.98c0-213.736-173.266-387-387-387s-387 173.268-387 387 173.266 387.005 387 387.005v0.031a30 30 0 0 1 0 60c-0.279 0-0.549-0.034-0.826-0.042C264.684 958.527 65 758.58 65 511.985c0-246.872 200.129-447 447-447s447 200.128 447 447a449.817 449.817 0 0 1-6.266 74.806zM692 575.828a30 30 0 0 1 30 30v0.063a30 30 0 0 1-30 30H542v83.125a30 30 0 0 1-60 0v-83.125H332a30 30 0 0 1-30-30v-0.063a30 30 0 0 1 30-30h150v-64.062H332a30 30 0 0 1-30-30v-0.062a30 30 0 0 1 30-30h123.625L349.819 345.765a30.01 30.01 0 0 1 42.414-42.466l119.533 119.682 120.049-120.182a30.016 30.016 0 0 1 42.426 42.473L567.927 451.704H692a30 30 0 0 1 30 30v0.062a30 30 0 0 1-30 30H542v64.062h150z m8.781 231.094a30 30 0 0 1 30 30v91.813a30 30 0 0 1-60 0v-91.813a30 30 0 0 1 30-30z m114-130a30 30 0 0 1 30 30v221.813a30 30 0 0 1-60 0V706.922a30 30 0 0 1 30-30z m114 48a30 30 0 0 1 30 30v173.813a30 30 0 0 1-60 0V754.922a30 30 0 0 1 30-30z" fill="#333333" p-id="5513"></path></svg>