<svg xmlns="http://www.w3.org/2000/svg" xmlns:xlink="http://www.w3.org/1999/xlink" viewBox="0 0 853 621" class="design-iconfont">
  <defs>
    <linearGradient x1="50%" y1="-12.135884%" x2="50%" y2="100%" id="oqj4mycbaa">
      <stop stop-color="#F6FAFF" offset="0%"/>
      <stop stop-color="#CCE3FF" offset="100%"/>
    </linearGradient>
    <linearGradient x1="50%" y1="0%" x2="50%" y2="97.4992659%" id="qhubpu86kd">
      <stop stop-color="#72C0FF" offset="0%"/>
      <stop stop-color="#4294FD" offset="100%"/>
    </linearGradient>
    <linearGradient x1="50%" y1="0%" x2="50%" y2="59.9115883%" id="n0f7hp96ge">
      <stop stop-color="#A6BEFF" stop-opacity=".30560602" offset="0%"/>
      <stop stop-color="#FFF" stop-opacity="0" offset="100%"/>
    </linearGradient>
    <linearGradient x1="50%" y1="0%" x2="50%" y2="100%" id="1nts7q3rhj">
      <stop stop-color="#BCDFFF" offset="0%"/>
      <stop stop-color="#5299F3" offset="100%"/>
    </linearGradient>
    <linearGradient x1="50%" y1="0%" x2="50%" y2="100%" id="8o5xlgf7ck">
      <stop stop-color="#05A7EA" offset="0%"/>
      <stop stop-color="#026ED0" offset="100%"/>
    </linearGradient>
    <linearGradient x1="50%" y1="0%" x2="50%" y2="100%" id="jc6znkgl3m">
      <stop stop-color="#ACDBFF" offset="0%"/>
      <stop stop-color="#0E7DE2" offset="100%"/>
    </linearGradient>
    <linearGradient x1="50%" y1="0%" x2="50%" y2="100%" id="koj9nazkxo">
      <stop stop-color="#CCE6FF" offset="0%"/>
      <stop stop-color="#A3CDFC" offset="100%"/>
    </linearGradient>
    <linearGradient x1="50%" y1="0%" x2="50%" y2="100%" id="pejmls898t">
      <stop stop-color="#7FB8FF" offset="0%"/>
      <stop stop-color="#398EFF" offset="100%"/>
    </linearGradient>
    <linearGradient x1="50%" y1="0%" x2="50%" y2="100%" id="szjh3vgkvu">
      <stop stop-color="#E5F1FF" offset="0%"/>
      <stop stop-color="#92C1FF" offset="100%"/>
    </linearGradient>
    <linearGradient x1="50.7593145%" y1="51.5805236%" x2="59.8386123%" y2="69.69012%" id="g1mpbs2uwx">
      <stop stop-color="#A9E0CE" stop-opacity=".00127278" offset="0%"/>
      <stop stop-color="#A5D0C7" stop-opacity=".1417" offset="53.62%"/>
      <stop stop-color="#92C6C1" stop-opacity=".3506" offset="80.67%"/>
      <stop stop-color="#8CC2BF" stop-opacity=".62762408" offset="100%"/>
    </linearGradient>
    <linearGradient x1="49.9041498%" y1="38.9950172%" x2="50.239236%" y2="63.0315246%" id="7bmw0b583y">
      <stop stop-color="#B5D9CD" stop-opacity="0" offset="35.28%"/>
      <stop stop-color="#A5D0C7" stop-opacity=".1417" offset="53.62%"/>
      <stop stop-color="#92C6C1" stop-opacity=".3506" offset="80.67%"/>
      <stop stop-color="#8CC2BF" stop-opacity=".5" offset="100%"/>
    </linearGradient>
    <linearGradient x1="35.2799902%" y1="50.0000032%" x2="99.9999721%" y2="50.0000032%" id="2jur4qrecz">
      <stop stop-color="#99E9CF" stop-opacity="0" offset="0%"/>
      <stop stop-color="#A5D0C7" stop-opacity=".1417" offset="53.62%"/>
      <stop stop-color="#92C6C1" stop-opacity=".3506" offset="80.67%"/>
      <stop stop-color="#8CC2BF" stop-opacity=".5" offset="100%"/>
    </linearGradient>
    <linearGradient x1="50%" y1="0%" x2="50%" y2="100%" id="ok1d8iduvD">
      <stop stop-color="#A9C5DF" offset="0%"/>
      <stop stop-color="#7192BC" offset="100%"/>
    </linearGradient>
    <linearGradient x1="81.6737693%" y1="58.1266977%" x2="161.656188%" y2="78.6481571%" id="ohgsz1vupF">
      <stop stop-color="#ABC1DA" stop-opacity="0" offset="0%"/>
      <stop stop-color="#ABC1DA" offset="100%"/>
    </linearGradient>
    <linearGradient x1="0%" y1="50%" x2="100%" y2="50%" id="n4fkowsboG">
      <stop stop-color="#896E67" stop-opacity="0" offset="0%"/>
      <stop stop-color="#896E67" offset="100%"/>
    </linearGradient>
    <linearGradient x1="92.8126814%" y1="40.2695685%" x2="16.9122553%" y2="61.3299266%" id="ew0h6lxo4H">
      <stop stop-color="#FFDB8A" offset="0%"/>
      <stop stop-color="#FFB552" offset="100%"/>
    </linearGradient>
    <linearGradient x1="65.8251499%" y1="41.1440704%" x2="45.1900826%" y2="52.6917177%" id="11ng8tqb2K">
      <stop stop-color="#79A0E3" stop-opacity="0" offset="0%"/>
      <stop stop-color="#9CABE3" offset="100%"/>
    </linearGradient>
    <linearGradient x1="37.5318801%" y1="40.3373266%" x2="26.5089918%" y2="24.2833347%" id="ynpihu6hoL">
      <stop stop-color="#ABC1DA" stop-opacity="0" offset="0%"/>
      <stop stop-color="#ABC1DA" offset="100%"/>
    </linearGradient>
    <filter x="-39.3%" y="-469.8%" width="178.6%" height="1039.7%" id="7y3l5e0qpb">
      <feGaussianBlur stdDeviation="12" in="SourceGraphic"/>
    </filter>
    <filter x="-11%" y="-15.1%" width="121.9%" height="134.6%" id="zmgkgvm5og">
      <feOffset dy="2" in="SourceAlpha" result="shadowOffsetOuter1"/>
      <feGaussianBlur stdDeviation="5" in="shadowOffsetOuter1" result="shadowBlurOuter1"/>
      <feColorMatrix values="0 0 0 0 0.0457777854 0 0 0 0 0.361687955 0 0 0 0 0.650235826 0 0 0 0.528436407 0" in="shadowBlurOuter1"/>
    </filter>
    <filter x="-21.9%" y="-18.6%" width="143.9%" height="137.2%" id="npm1h1ri2n">
      <feOffset dx="-4" dy="5" in="SourceAlpha" result="shadowOffsetOuter1"/>
      <feGaussianBlur stdDeviation="6" in="shadowOffsetOuter1" result="shadowBlurOuter1"/>
      <feColorMatrix values="0 0 0 0 0 0 0 0 0 0.356104847 0 0 0 0 0.681365967 0 0 0 0.357899059 0" in="shadowBlurOuter1" result="shadowMatrixOuter1"/>
      <feMerge>
        <feMergeNode in="shadowMatrixOuter1"/>
        <feMergeNode in="SourceGraphic"/>
      </feMerge>
    </filter>
    <filter x="-22.9%" y="-53.7%" width="145.9%" height="207.5%" id="8alwhh7l3p">
      <feOffset dy="2" in="SourceAlpha" result="shadowOffsetOuter1"/>
      <feGaussianBlur stdDeviation="3.5" in="shadowOffsetOuter1" result="shadowBlurOuter1"/>
      <feColorMatrix values="0 0 0 0 0.235748404 0 0 0 0 0.497418638 0 0 0 0 0.922009897 0 0 0 0.434127274 0" in="shadowBlurOuter1" result="shadowMatrixOuter1"/>
      <feMerge>
        <feMergeNode in="shadowMatrixOuter1"/>
        <feMergeNode in="SourceGraphic"/>
      </feMerge>
    </filter>
    <filter x="-22.9%" y="-53.7%" width="145.9%" height="207.5%" id="3o7oef0edq">
      <feOffset dy="2" in="SourceAlpha" result="shadowOffsetOuter1"/>
      <feGaussianBlur stdDeviation="3.5" in="shadowOffsetOuter1" result="shadowBlurOuter1"/>
      <feColorMatrix values="0 0 0 0 0.235748404 0 0 0 0 0.497418638 0 0 0 0 0.922009897 0 0 0 0.434127274 0" in="shadowBlurOuter1" result="shadowMatrixOuter1"/>
      <feMerge>
        <feMergeNode in="shadowMatrixOuter1"/>
        <feMergeNode in="SourceGraphic"/>
      </feMerge>
    </filter>
    <filter x="-22.9%" y="-53.7%" width="145.9%" height="207.5%" id="kwkt7eh6or">
      <feOffset dy="2" in="SourceAlpha" result="shadowOffsetOuter1"/>
      <feGaussianBlur stdDeviation="3.5" in="shadowOffsetOuter1" result="shadowBlurOuter1"/>
      <feColorMatrix values="0 0 0 0 1 0 0 0 0 0.749019608 0 0 0 0 0.454901961 0 0 0 0.476765666 0" in="shadowBlurOuter1" result="shadowMatrixOuter1"/>
      <feMerge>
        <feMergeNode in="shadowMatrixOuter1"/>
        <feMergeNode in="SourceGraphic"/>
      </feMerge>
    </filter>
    <filter x="-14.7%" y="-25.2%" width="129.3%" height="150.3%" id="tev91vq9gs">
      <feOffset dy="2" in="SourceAlpha" result="shadowOffsetOuter1"/>
      <feGaussianBlur stdDeviation="4" in="shadowOffsetOuter1" result="shadowBlurOuter1"/>
      <feColorMatrix values="0 0 0 0 0.210561042 0 0 0 0 0.445291315 0 0 0 0 0.653519782 0 0 0 0.455626161 0" in="shadowBlurOuter1" result="shadowMatrixOuter1"/>
      <feMerge>
        <feMergeNode in="shadowMatrixOuter1"/>
        <feMergeNode in="SourceGraphic"/>
      </feMerge>
    </filter>
    <filter x="-16.7%" y="-10.6%" width="133.3%" height="128%" id="zpox8lgh0v">
      <feOffset dy="5" in="SourceAlpha" result="shadowOffsetOuter1"/>
      <feGaussianBlur stdDeviation="6" in="shadowOffsetOuter1" result="shadowBlurOuter1"/>
      <feColorMatrix values="0 0 0 0 0 0 0 0 0 0.356104847 0 0 0 0 0.681365967 0 0 0 0.258827476 0" in="shadowBlurOuter1"/>
    </filter>
    <filter x="-16.1%" y="-109.4%" width="132.2%" height="318.7%" id="zjl2h6m9wB">
      <feGaussianBlur stdDeviation="3" in="SourceGraphic"/>
    </filter>
    <filter x="-14.3%" y="-21.5%" width="128.6%" height="143%" id="jmdp7u2jpE">
      <feOffset dy="2" in="SourceAlpha" result="shadowOffsetOuter1"/>
      <feGaussianBlur stdDeviation="5.5" in="shadowOffsetOuter1" result="shadowBlurOuter1"/>
      <feColorMatrix values="0 0 0 0 0.342365391 0 0 0 0 0.53597237 0 0 0 0 0.775486158 0 0 0 0.365271935 0" in="shadowBlurOuter1" result="shadowMatrixOuter1"/>
      <feMerge>
        <feMergeNode in="shadowMatrixOuter1"/>
        <feMergeNode in="SourceGraphic"/>
      </feMerge>
    </filter>
    <path d="M16,0 L367.463584,0 C376.30014,-1.623249e-15 383.463584,7.163444 383.463584,16 L383.463584,206.631641 C383.463584,209.945349 380.777293,212.631641 377.463584,212.631641 L6,212.631641 C2.6862915,212.631641 1.95625262e-14,209.945349 0,206.631641 L0,16 C-1.082166e-15,7.163444 7.163444,-3.70582152e-15 16,0 Z" id="t43tik3syc"/>
    <path id="asxncio1mi" d="M28.1990865 0A28.1990865 27.9780204 0 1 0 28.1990865 55.9560408A28.1990865 27.9780204 0 1 0 28.1990865 0Z"/>
    <path d="M25.684004,49.3722941 C40.1808381,49.3722941 52.4976803,41.9694467 52.4976803,27.0372087 C52.4976803,12.1049706 40.7456742,0 26.2488401,0 C11.752006,0 0,12.1049706 0,27.0372087 C0,41.9694467 11.1871699,49.3722941 25.684004,49.3722941 Z" id="pkjchom5uA"/>
    <path d="M40.9619652,40.6749063 C40.2331911,13.5583021 39.868804,0 39.868804,0 C17.8498716,0 -1.13686838e-13,18.2107758 -1.13686838e-13,40.6749063 C-1.13686838e-13,40.6749063 13.6539884,40.6749063 40.9619652,40.6749063 Z" id="l450dzoqqI"/>
    <rect id="l3g67aof5h" x="0" y="0" width="145.914606" height="92.4656896" rx="9"/>
    <rect id="hvu4rwdvew" x="0" y="0" width="123.051747" height="146.543428" rx="13"/>
  </defs>
  <g fill="none" fill-rule="evenodd">
    <path d="M337.407926,129.746167 C402.114275,165.764348 499.74231,67.8733154 560.359806,46.4163491 C674.480079,6.02083614 811,50.9814494 811,175.467339 C811,243.087894 709.372062,284.698005 732.922327,339.272941 C775.755719,438.534231 819.704317,445.634244 798.370862,499.660866 C751.559867,618.208935 592.015494,425.443142 452.814447,483.432744 C222.691248,579.2995 41,579.2995 21,462.308964 C4.28824785,364.553122 110.082825,367.726313 79.7728935,250.207174 C49.4629616,132.688036 227.433251,68.5297994 337.407926,129.746167 Z" fill="#EFF7FF"/>
    <path d="M279,256.320135 C315.959901,200.893658 366.138182,172.795958 429.534845,172.027038 C524.62984,170.873657 499.201837,206.742441 591.57173,256.320135 C683.941624,305.89783 667.815309,181.608638 706,181.50355" stroke="#F8B15A" stroke-width="2" stroke-dasharray="4"/>
    <g fill-rule="nonzero">
      <path fill="#E0A14D" d="M54.848647 0A51.9869785 52.20011 0 1 0 54.848647 104.40022A51.9869785 52.20011 0 1 0 54.848647 0Z" transform="matrix(-1 0 0 1 221.934599 151)"/>
      <path fill="#FFB552" d="M51.9869785 0A51.9869785 52.20011 0 1 0 51.9869785 104.40022A51.9869785 52.20011 0 1 0 51.9869785 0Z" transform="matrix(-1 0 0 1 221.934599 151)"/>
      <path d="M80.5135775,88.8879081 C79.5397457,89.5476617 78.5769802,90.240403 77.5699495,90.8671689 C76.1092016,91.7688322 74.5931226,92.5935241 73.021712,93.330249 C71.3949702,94.0999616 69.7239632,94.7707111 67.997625,95.3424975 C63.4161887,96.8709267 58.5138306,97.6956186 53.4122796,97.6956186 C28.1258502,97.6956186 7.63111611,77.3312242 7.63111611,52.2056079 C7.63111611,42.8041191 10.4972803,34.062384 15.421771,26.8160902 C16.9046513,24.6279074 18.5867245,22.5716753 20.4237254,20.6693858 C22.2607265,18.7670963 24.2637216,17.0297451 26.4105781,15.4683283 C33.9799076,9.95938571 43.3198404,6.70460128 53.4233459,6.70460128 C78.7097753,6.70460128 99.2045094,27.0689958 99.2045094,52.1946121 C99.2045094,63.9712138 94.7005371,74.7032057 87.3193343,82.7741914 C87.3193343,82.7961831 83.4572057,86.9086473 80.5135775,88.8879081 Z" fill="#FFE5C2" transform="matrix(-1 0 0 1 221.934599 151)"/>
      <g fill="#FFF">
        <path d="M0.519136289,21.441705 L0.573862112,21.3877446 C0.562916947,21.3877446 0.541026618,21.3985366 0.519136289,21.441705 Z" transform="matrix(-1 0 0 1 171.13143 176.16399)"/>
        <path d="M4.13104059,5.07010687 C4.13104059,5.05931479 4.13104059,5.05931479 4.13104059,5.0485227 C4.12009543,5.07010687 4.12009543,5.07010687 4.13104059,5.07010687 Z" transform="matrix(-1 0 0 1 171.13143 176.16399)"/>
        <path d="M2.33603361,19.1969506 C2.33603361,19.2077427 2.33603361,19.2077427 2.33603361,19.1969506 C2.33603361,19.2077427 2.33603361,19.2185347 2.33603361,19.2185347 L2.33603361,19.1969506 Z" transform="matrix(-1 0 0 1 171.13143 176.16399)"/>
        <path d="M2.94779031,22.4777455 C3.31738819,21.6251705 3.65338625,21.4309128 3.85498508,20.5135853 C4.02298411,20.092694 4.10698364,19.6286341 4.22458295,19.1969506 C4.09018373,18.9703167 4.40938189,18.6465541 4.30858246,18.3875439 L4.45978159,18.3119993 C4.42618178,18.2256626 4.42618178,18.1177418 4.5101813,18.0529892 L4.54378111,18.0637812 C4.4933814,17.9342762 4.59418081,17.8047711 4.57738091,17.7400186 L4.61098072,17.7508107 L4.64458053,17.5997215 L4.67818034,17.6320977 C4.66138043,17.4054639 4.72858003,17.1896221 4.82937946,17.0061566 L4.67818034,17.0061566 C4.98057859,16.6176414 4.72858003,16.4233838 5.04777819,16.0888291 L5.081378,16.0996212 C4.86297927,15.581601 5.5853751,15.3981355 5.40057616,14.8693231 C5.41737607,14.9340757 5.48457567,14.858531 5.51817548,14.858531 C5.55177529,14.6318972 5.61897491,14.3944712 5.33337654,14.3513028 C5.38377626,14.1894216 5.46777578,14.2325899 5.5853751,14.2217978 C5.46777578,14.2002136 5.45097588,14.0599165 5.50137558,13.9304115 L5.53497539,13.9951639 L5.61897491,13.628233 L5.36697635,13.6714013 C5.50137558,13.4879358 5.66937461,13.6606092 5.66937461,13.4663516 L5.48457567,13.4447674 C5.61897491,13.1857573 5.95497296,13.0670444 6.19017161,12.8296184 C6.62696909,11.7719938 6.52616968,10.5632799 7.2149657,9.61357608 L7.36616482,9.5919919 C7.58456357,9.602784 7.14776608,9.27902135 7.34936492,9.26822925 L7.2989652,9.13872419 C7.34936492,9.10634793 7.41656454,9.05238748 7.43336444,9.11714001 C7.48376414,9.00921913 7.45016433,9.00921913 7.39976463,8.92288242 L7.56776367,8.82575363 C7.81976221,8.41565427 7.68536298,8.02713909 7.88696183,7.58466346 C8.34055921,7.0882274 8.42455872,6.05218691 8.47495843,5.45862206 C8.44135862,4.60604707 9.60055193,3.77505627 9.51655242,2.89010502 C9.55015223,2.86852084 9.51655242,2.79297622 9.48295261,2.78218414 L9.76855096,2.02673795 C9.76855096,2.02673795 11.0957433,-1.6533642 8.40775881,0.904360758 L8.374159,0.882776581 C8.12216046,1.28208385 8.00456114,1.54109397 8.13896037,1.86485662 C7.83656211,1.87564871 7.98776124,2.19941136 7.87016192,2.28574807 L7.85336202,2.27495598 C7.98776124,2.55555028 7.50056405,2.77139204 7.60136346,3.04119426 C7.58456357,3.03040216 7.50056405,3.00881799 7.51736395,2.95485755 C7.50056405,3.13832305 7.46696424,3.38654109 7.2989652,3.38654109 C7.19816579,3.81822462 6.91256744,4.40099739 7.09736638,4.71396795 L7.06376657,4.69238378 C7.18136589,4.87584928 7.03016676,4.89743346 7.04696666,5.08089896 C7.03016676,5.09169105 7.01336685,5.10248313 6.99656695,5.09169105 C7.11416628,5.28594864 6.86216773,5.58812712 6.87896763,5.73921635 L6.76136831,5.72842426 L6.67736881,6.07377109 L6.74456841,5.95505812 C7.03016676,6.04139483 6.47576996,6.18169197 6.57656938,6.45149419 C6.45897006,6.67812804 7.04696666,7.00189069 6.81176803,7.21773246 C6.91256744,7.34723752 6.61016919,7.0882274 6.6605689,7.27169291 C6.50936977,7.25010873 6.59336928,7.1745641 6.44217015,7.20694038 C6.45897006,7.37961379 6.19017161,7.4551584 6.22377142,7.68179226 L6.10617209,7.67100017 C6.24057131,7.97317865 5.77017404,8.15664415 5.92137317,8.36169383 C5.92137317,8.65308022 5.50137558,8.49119889 5.6357748,8.81496154 L5.43417597,8.90129825 C5.36697635,9.02001122 5.60217501,9.02001122 5.48457567,9.13872419 C5.38377626,9.11714001 5.35017645,9.30060552 5.26617694,9.20347672 C4.9973785,9.49486311 5.28297685,9.86179412 4.86297927,10.2287251 C5.03097829,10.3474381 4.84617937,10.5309036 4.98057859,10.6172403 C4.89657907,10.6172403 4.82937946,11.0273396 4.71178015,10.7683295 C4.69498024,10.7467454 4.71178015,10.7143691 4.74537994,10.7143691 L4.62778062,10.6712007 C4.32538237,10.8762504 4.61098072,11.1136763 4.4933814,11.3403103 C4.56058102,11.2755577 4.57738091,11.189221 4.64458053,11.2539735 L4.56058102,11.4698153 L4.47658149,11.4158548 L4.30858246,11.7288254 L4.44298168,11.7072412 C4.32538237,11.8583305 4.09018373,11.8799146 4.20778305,12.0741723 C4.27498265,12.171301 4.42618178,11.9554593 4.40938189,12.1173406 C4.25818276,12.3115982 4.02298411,12.6029846 3.88858489,12.8619947 C4.03978402,12.8619947 4.00618421,12.9267472 4.00618421,13.0022918 L3.88858489,12.9914998 C3.95578451,13.2936782 3.58618663,13.0562522 3.61978644,13.3584307 L3.53578692,13.3260545 L3.77098557,13.4339753 C3.9221847,13.7253618 3.46858731,13.5311041 3.70378595,13.8656589 C3.72058586,13.7469459 3.9893843,13.8548668 3.88858489,13.9843719 L3.78778547,13.9304115 C3.78778547,14.005956 3.82138527,14.0383323 3.78778547,14.0922927 C3.73738576,14.0383323 3.61978644,14.0491244 3.60298654,14.1570453 L3.48538722,14.0599165 L3.63658635,14.2973424 C3.45178741,14.4376395 3.51898701,14.7182339 3.33418809,14.7614022 C3.33418809,14.7614022 3.13258925,15.095957 3.28378838,15.2038778 C3.19978887,15.1175411 3.08218953,15.3010066 2.96459022,15.2254621 C3.06538963,15.3333829 3.08218953,15.6139773 2.89739061,15.700314 L2.88059071,15.6787297 C2.61179225,16.0564529 2.8469909,16.3802154 2.56139255,16.7147702 C2.71259168,16.7147702 2.56139255,16.8982357 2.76299137,16.8766516 C2.81339109,17.2651668 2.15819486,17.4918006 2.67899187,17.7076423 C2.64539206,17.8803158 2.47739302,17.8911078 2.42699333,17.9666525 L2.41019342,17.9234841 C2.3429938,18.2472468 2.3261939,18.3335835 2.22539448,18.5602174 C2.24219439,18.6789304 2.49419293,18.7436828 2.35979371,18.9379405 C2.2757942,18.8516038 2.2757942,18.9487325 2.24219439,19.0242772 C2.24219439,18.9703167 2.20859458,18.9487325 2.10779517,19.0458613 C2.14139498,19.0674455 2.14139498,19.0890297 2.15819486,19.1106139 C2.14139498,19.1106139 2.14139498,19.1106139 2.12459507,19.1106139 C2.12459507,19.240119 2.15819486,19.2293268 2.19179467,19.1645743 C2.20859458,19.1645743 2.22539448,19.1645743 2.25899429,19.1537822 C2.07419536,19.2724951 2.14139498,19.5315053 1.95659604,19.5207132 C1.87259652,19.9200204 1.95659604,20.2221989 1.92299623,20.5567537 C1.82219681,20.5783379 1.7549972,20.4920012 1.7549972,20.3948723 L1.70459749,20.6322983 C1.57019826,20.6107141 1.67099768,20.4920012 1.67099768,20.4164566 C1.36859943,20.6646746 1.68779759,21.0100214 1.38539933,21.3014078 L1.46939884,21.3877445 L1.45259894,21.4093287 C1.50299865,21.4201208 1.55339836,21.4956654 1.55339836,21.5496258 C1.41899914,21.5820021 1.28459991,21.5064575 1.2510001,21.6683388 C1.09980098,21.7762596 1.18380049,22.0352698 1.18380049,22.2079432 C1.2342002,22.1216065 1.28459991,22.1647749 1.31819972,22.2079432 C1.30139981,22.2834878 1.16700059,22.3158641 1.2006004,22.3806166 L1.04940127,22.3698245 C1.2006004,22.3590325 1.13340078,22.5964585 1.18380049,22.6396267 C1.04940127,22.672003 1.13340078,22.4993296 1.04940127,22.4669534 C0.948601849,22.790716 0.999001559,22.6288347 0.915002044,22.9525974 C0.982201655,23.1360628 1.06620117,22.9418052 1.18380049,23.0389341 C1.16700059,23.1900232 1.2174003,23.3519046 1.06620117,23.513786 L1.2174003,23.4814097 C1.2342002,23.7835881 1.15020069,23.9454695 0.948601849,24.1181429 C1.35179952,26.3736893 2.3261939,24.7764603 2.3261939,24.7764603 C2.98139012,23.9670536 2.72939158,23.4814097 2.94779031,22.4777455 Z" transform="matrix(-1 0 0 1 171.13143 176.16399)"/>
      </g>
      <path d="M51.9869784,14.3670027 C51.7198894,14.3670027 51.5100337,14.133393 51.5100337,13.8360714 L51.5100337,10.1089332 C51.5100337,9.81161163 51.7198894,9.57800183 51.9869784,9.57800183 C52.2540675,9.57800183 52.4639232,9.81161163 52.4639232,10.1089332 L52.4639232,13.8360714 C52.4639232,14.1227744 52.2445286,14.3670027 51.9869784,14.3670027 Z" fill="#FFF" transform="matrix(-1 0 0 1 221.934599 151)"/>
      <path d="M51.9869784,94.8222181 C51.7198894,94.8222181 51.5100337,94.5886082 51.5100337,94.2912867 L51.5100337,90.5641486 C51.5100337,90.266827 51.7198894,90.0332172 51.9869784,90.0332172 C52.2540675,90.0332172 52.4639232,90.266827 52.4639232,90.5641486 L52.4639232,94.2912867 C52.4639232,94.5886082 52.2445286,94.8222181 51.9869784,94.8222181 Z" fill="#FFF" transform="matrix(-1 0 0 1 221.934599 151)"/>
      <path d="M93.9062983,53.6368102 L90.1943779,53.6368102 C89.8982703,53.6368102 89.6656143,53.4260942 89.6656143,53.1579102 C89.6656143,52.8897261 89.8982703,52.67901 90.1943779,52.67901 L93.9062983,52.67901 C94.2024059,52.67901 94.4350618,52.8897261 94.4350618,53.1579102 C94.4350618,53.4260942 94.2024059,53.6368102 93.9062983,53.6368102 Z" fill="#FFF" transform="matrix(-1 0 0 1 221.934599 151)"/>
      <path d="M13.7795791,53.6368102 L10.0676587,53.6368102 C9.77155112,53.6368102 9.53889513,53.4260942 9.53889513,53.1579102 C9.53889513,52.8897261 9.77155112,52.67901 10.0676587,52.67901 L13.7795791,52.67901 C14.0756867,52.67901 14.3083427,52.8897261 14.3083427,53.1579102 C14.3083427,53.4260942 14.0651114,53.6368102 13.7795791,53.6368102 Z" fill="#FFF" transform="matrix(-1 0 0 1 221.934599 151)"/>
      <g fill="#FFF">
        <path d="M4.41086491,1.61231276 L4.45518685,1.68809055 C4.46626734,1.67726514 4.45518685,1.65561435 4.41086491,1.61231276 Z" transform="matrix(-1 0 0 1 171.290642 202.218748)"/>
        <path d="M21.6853435,12.0696465 C21.696424,12.0696465 21.696424,12.0696465 21.7075044,12.0696465 C21.696424,12.0696465 21.696424,12.0696465 21.6853435,12.0696465 Z" transform="matrix(-1 0 0 1 171.290642 202.218748)"/>
        <path d="M6.37211103,4.30783669 L6.37211103,4.30783669 C6.36103054,4.30783669 6.34995005,4.30783669 6.34995005,4.30783669 L6.37211103,4.30783669 Z" transform="matrix(-1 0 0 1 171.290642 202.218748)"/>
        <path d="M2.89323024,2.97416842 C3.76312933,3.81330333 3.91536167,4.22524228 4.87225067,4.94232122 C5.30720023,5.33900318 5.80739221,5.70517115 6.24234175,6.05608211 C6.52505895,6.07133911 6.80777617,6.54430606 7.11224084,6.62059106 L7.16660954,6.78841805 C7.27534693,6.81893205 7.38408432,6.86470304 7.44932675,6.98675903 L7.42757927,7.00201602 C7.57981162,7.04778702 7.71029647,7.200357 7.78641265,7.230871 L7.76466517,7.24612799 L7.91689751,7.36818398 L7.87340256,7.38344099 C8.12349855,7.50549698 8.35184706,7.68858096 8.53670062,7.90217894 L8.56932184,7.78012295 C8.93902895,8.2683469 9.19999868,8.17680491 9.5153371,8.66502886 L9.49358962,8.68028585 C10.1133927,8.80234184 10.1677614,9.54993478 10.7875645,9.70250476 C10.7114484,9.68724776 10.7875645,9.77878975 10.7766908,9.80930374 C11.0159131,9.97713074 11.2768828,10.1754717 11.3747464,9.96187373 C11.5378525,10.1144437 11.4834838,10.1449577 11.4617363,10.2517567 C11.5052313,10.1602147 11.6683374,10.2364997 11.7988223,10.3432987 L11.722706,10.3280417 L12.1141606,10.6179247 L12.1250344,10.3738127 C12.2990142,10.6026677 12.0815395,10.6484387 12.2881405,10.7552377 L12.3533829,10.6026677 C12.6143526,10.8772936 12.6795951,11.2434616 12.886196,11.5791156 C13.9626962,12.6013345 15.3219136,13.2573854 16.2353076,14.4169173 L16.2353076,14.5694873 C16.1809389,14.7525712 16.6267622,14.5694873 16.594141,14.7525712 L16.7463733,14.7830853 C16.7681208,14.8441133 16.8224895,14.9356552 16.7463733,14.9203983 C16.8551107,15.0271973 16.8659845,14.9966832 16.9747219,15.0119402 L17.050838,15.2255382 C17.4531664,15.6832481 17.9098634,15.8053041 18.3556867,16.2477572 C18.8123837,16.9343221 19.9432525,17.651401 20.5848031,18.0480829 C21.5308184,18.5363069 22.2158639,20.0467498 23.2053741,20.5044596 C23.2271216,20.5502307 23.3141115,20.5654876 23.3249853,20.5502307 L24.1078945,21.2520527 C24.1078945,21.2520527 27.9028292,24.6391063 25.6084703,20.7333147 L25.6410916,20.7180577 C25.249637,20.2603477 24.9886673,20.0009787 24.6080865,19.9246938 C24.6624551,19.6653248 24.2601268,19.5890397 24.1948844,19.4364698 L24.2166319,19.4212129 C23.8795459,19.3601849 23.7381874,18.8109329 23.4119752,18.734648 C23.4337227,18.7193909 23.4663438,18.67362 23.5207126,18.7193909 C23.3249853,18.5820779 23.0531418,18.4142509 23.0966367,18.2769379 C22.6399397,17.9260269 22.0527578,17.3310041 21.672177,17.30049 L21.7047981,17.2852331 C21.4764497,17.2852331 21.4873235,17.117406 21.2807224,17.0411211 C21.2807224,17.010607 21.2698487,16.9953501 21.2698487,16.9953501 C21.0306264,16.9800931 20.7479092,16.5681541 20.5848031,16.5071261 L20.6174243,16.4155842 L20.2585909,16.1257012 L20.3782021,16.2630141 C20.2259697,16.4613551 20.1824748,15.8815892 19.8562626,15.8205612 C19.6279141,15.5917062 19.1603433,15.8968462 18.964616,15.5611923 C18.8015099,15.5764492 19.1494695,15.4696502 18.9319948,15.4086222 C18.9863635,15.2865662 19.0516059,15.4086222 19.0516059,15.2560523 C18.8558786,15.1645102 18.8232575,14.8898843 18.5731614,14.7830853 L18.6057827,14.6762863 C18.2469493,14.6152583 18.1382119,14.0965203 17.8772421,14.0965203 C17.55103,13.9286934 17.8119997,13.6388104 17.4314189,13.5777824 L17.3770502,13.3489274 C17.2574391,13.2116144 17.2139441,13.4252124 17.1052067,13.2421284 C17.1487017,13.1658434 16.9529744,13.0285304 17.0725855,13.0132735 C16.8116157,12.6013345 16.344045,12.6318485 16.0178328,12.0520825 C15.8547267,12.1283675 15.680747,11.8537416 15.5611358,11.9147696 C15.5828833,11.8384846 15.13706,11.5333446 15.4415247,11.5943726 C15.4632722,11.5943726 15.5067672,11.6401436 15.4850197,11.6554006 L15.5502621,11.5791156 C15.387156,11.1976906 15.0718176,11.3044896 14.843469,11.0603776 C14.8978378,11.1519196 14.9957014,11.2282046 14.9087115,11.2434616 L14.6912367,11.0451206 L14.7673529,10.9993496 L14.4628882,10.6636957 L14.4628882,10.8010087 C14.3215296,10.6026677 14.3432771,10.3890697 14.0931811,10.3738127 C13.9735699,10.3738127 14.1910447,10.6331817 14.0061912,10.5263827 C13.8213376,10.2670137 13.5386204,9.88558875 13.2776506,9.62621978 C13.2559032,9.76353276 13.179787,9.68724777 13.0927971,9.64147677 L13.1254183,9.53467779 C12.7774588,9.4126218 13.1145446,9.22953782 12.7774588,9.07696783 L12.8318274,9.03119683 L12.6687214,9.16850982 C12.3207617,9.13799583 12.6143526,8.84811285 12.2120243,8.84811285 C12.3316354,8.92439785 12.1685294,9.10748183 12.0489182,8.93965484 L12.1250344,8.87862684 C12.0380445,8.83285585 11.9945496,8.84811285 11.9510546,8.78708485 C12.016297,8.77182786 12.0380445,8.66502886 11.9184333,8.58874388 L12.0489182,8.54297287 L11.7553273,8.52771588 C11.6357161,8.28360391 11.309504,8.17680491 11.2986303,7.97846394 C11.2986303,7.97846394 10.9615443,7.59703897 10.8201858,7.67332397 C10.9289231,7.64280997 10.7440696,7.44446898 10.8528069,7.38344099 C10.7114484,7.39869799 10.4069837,7.24612801 10.3417412,7.04778702 L10.3634887,7.04778702 C10.0046553,6.57482007 9.60232701,6.59007706 9.28698859,6.13236711 C9.25436738,6.2544231 9.09126129,6.02556813 9.06951381,6.20865211 C8.62369053,6.02556813 8.5040794,5.30848919 8.17786725,5.64414316 C7.99301368,5.52208717 8.01476116,5.36951718 7.93864499,5.2627182 L7.99301368,5.27797519 C7.65592778,5.03386321 7.55806414,4.95757823 7.31884188,4.72872324 C7.17748328,4.66769525 7.06874589,4.85077923 6.8730186,4.62192426 C6.98175599,4.60666726 6.88389234,4.54563926 6.80777617,4.46935428 C6.86214486,4.49986827 6.89476608,4.48461127 6.80777617,4.33204128 C6.78602869,4.34729829 6.75340747,4.34729829 6.72078625,4.33204128 C6.72078625,4.33204128 6.72078625,4.31678429 6.73165999,4.31678429 C6.57942765,4.2252423 6.60117513,4.27101329 6.65554382,4.34729829 C6.64467008,4.36255528 6.64467008,4.37781229 6.65554382,4.42358327 C6.55768017,4.1947283 6.26408923,4.08792931 6.30758419,3.93535932 C5.89438211,3.61496236 5.53554874,3.50816336 5.17671536,3.27930839 C5.16584162,3.17250939 5.27457901,3.17250939 5.38331639,3.23353739 L5.13322041,3.05045341 C5.17671536,2.94365442 5.29632649,3.1114814 5.38331639,3.1572524 C5.17671536,2.74531344 4.72001834,2.82159844 4.45904861,2.37914547 L4.35031122,2.39440248 L4.33943748,2.36388848 C4.31769,2.40965947 4.21982635,2.40965947 4.16545767,2.37914547 C4.15458393,2.24183249 4.26332131,2.16554749 4.08934149,2.02823451 C4.00235158,1.82989352 3.69788689,1.75360854 3.51303334,1.64680954 C3.60002324,1.73835153 3.54565456,1.76886553 3.49128586,1.76886553 C3.40429595,1.70783754 3.40429595,1.57052456 3.31730604,1.55526755 L3.360801,1.43321156 C3.33905352,1.57052456 3.08895753,1.37218357 3.03458883,1.38744057 C3.02371509,1.25012758 3.19769491,1.41795457 3.25206361,1.37218357 C2.91497771,1.09755759 3.08895753,1.23487059 2.75187163,0.960244615 C2.53439685,0.899216621 2.73012415,1.09755759 2.59963929,1.1433286 C2.43653321,1.0365296 2.24080591,0.990758612 2.09944731,0.761903627 L2.11032105,0.914473612 C1.78410889,0.746646628 1.61012907,0.578819645 1.46877046,0.304193671 C-1.09743187,-0.702768232 0.479260242,1.1128146 0.479260242,1.1128146 C1.25129569,2.1045195 1.83847758,2.16554749 2.89323024,2.97416842 Z" transform="matrix(-1 0 0 1 171.290642 202.218748)"/>
      </g>
      <path fill="#FFF" d="M53.4178127 47.89000917A3.81555805 3.83120073 0 1 0 53.4178127 55.55241063A3.81555805 3.83120073 0 1 0 53.4178127 47.89000917Z" transform="matrix(-1 0 0 1 221.934599 151)"/>
    </g>
    <g transform="translate(192.803946 243.052539)">
      <path fill="url(#oqj4mycbaa)" d="M150.142209 245.196847L234.275264 245.196847 248.011273 315.11626 136.4062 315.11626z"/>
      <path fill-opacity=".67197744" fill="#265DA4" filter="url(#7y3l5e0qpb)" d="M145.945096 259.56385H237.5184893V267.22625146H145.945096z"/>
      <rect fill="#DAEBFF" y="192.517837" width="383.463584" height="70.8772135" rx="16"/>
      <mask id="2sjpkz1yzf" fill="#fff">
        <use xlink:href="#t43tik3syc"/>
      </mask>
      <use fill="url(#qhubpu86kd)" xlink:href="#t43tik3syc"/>
      <path d="M3.19744231e-14,156.12143 C3.19744231e-14,149.060525 46.0268367,135.700497 82.5795344,159.293842 C119.132232,182.887188 130.691391,194.122221 165.329582,180.691087 C199.967774,167.259952 233.901424,164.075336 272.211811,180.691087 C310.522198,197.306838 354.548017,191.539681 368.81355,184.189139 C383.079083,176.838598 391.409691,185.143467 392.249723,187.7271 C393.089756,190.310732 387.047863,204.468161 386.730115,208.373875 C386.518282,210.977684 310.497054,217.984107 158.666428,229.393144 L8.74818575,224.731829 L-15.0003802,208.373875 C-5.00012673,178.246181 3.19744231e-14,160.8287 3.19744231e-14,156.12143 Z" fill="url(#n0f7hp96ge)" mask="url(#2sjpkz1yzf)"/>
      <path fill="#1167B4" d="M192.208737 226.99864317A10.0158399 9.57800183 0 1 0 192.208737 246.15464683000002A10.0158399 9.57800183 0 1 0 192.208737 226.99864317Z"/>
      <rect fill="#BECEE0" x="130.682863" y="311.285059" width="125.913416" height="7.66240146" rx="3.83120073"/>
      <rect fill="#3587EB" x="60.2344205" y="70.3395082" width="145.914606" height="88.9543343" rx="6"/>
      <g transform="translate(33.42969 36.697155)">
        <use fill="#000" filter="url(#zmgkgvm5og)" xlink:href="#l3g67aof5h"/>
        <use fill="#E6F1FE" xlink:href="#l3g67aof5h"/>
        <g transform="translate(80.544862 17.556777)">
          <mask id="qr0jz1jyfl" fill="#fff">
            <use xlink:href="#asxncio1mi"/>
          </mask>
          <use fill="url(#1nts7q3rhj)" xlink:href="#asxncio1mi"/>
          <path fill="url(#8o5xlgf7ck)" mask="url(#qr0jz1jyfl)" d="M4.74099144 38.9468883L16.8761127 28.9349892 26.9442947 38.1560355 39.3831221 19.4047726 53.2140558 38.9468883 51.3303942 50.6337925 18.6393467 61.3718033 3.21836803 45.3242352z"/>
          <path d="M47.7169634,52.8172475 L27.2743811,36.9497452 L16.9496936,27.9780204 C11.481059,31.8770775 6.90395044,36.0138334 3.21836803,40.388288 C-0.467214387,44.7627426 -2.86607492,48.9057291 -3.97821356,52.8172475 L20.2962156,55.9914147 L28.2162119,61.3718033 L47.7169634,52.8172475 Z" fill="url(#jc6znkgl3m)" mask="url(#qr0jz1jyfl)"/>
        </g>
        <rect fill="#007FF3" x="16.3424359" y="21.0681318" width="23.3463369" height="5.85225883" rx="2.92612942"/>
        <rect fill="#C6E4FF" x="16.3424359" y="58.5225883" width="37.3541391" height="5.85225883" rx="2.92612942"/>
        <rect fill="#A1D2FF" x="16.3424359" y="32.7726495" width="44.3580402" height="5.85225883" rx="2.92612942"/>
        <rect fill="#5FB3FF" opacity=".80567424" x="16.3424359" y="45.6476189" width="53.696575" height="5.85225883" rx="2.92612942"/>
      </g>
    </g>
    <path d="M434.342502,212.420725 L463.26753,212.420725 C467.133523,212.420725 470.26753,215.554732 470.26753,219.420725 L470.26753,252.648333 L470.26753,252.648333 L434.342502,252.648333 C430.476509,252.648333 427.342502,249.514326 427.342502,245.648333 L427.342502,219.420725 C427.342502,215.554732 430.476509,212.420725 434.342502,212.420725 Z" fill="#3486EB" transform="translate(106 151)"/>
    <g filter="url(#npm1h1ri2n)" transform="translate(480.377678 203.67901)">
      <rect fill="url(#koj9nazkxo)" width="152.622322" height="180.066434" rx="8"/>
      <rect fill="#FFF" x="8.58500562" y="8.62020164" width="137.36009" height="164.741631" rx="8"/>
      <g filter="url(#8alwhh7l3p)" transform="translate(20.03168 22.029404)">
        <path d="M11,0 L65.3111611,0 C71.3862933,-2.89234053e-15 76.3111611,4.92486775 76.3111611,11 L76.3111611,21.5652062 C76.3111611,27.6403385 71.3862933,32.5652062 65.3111611,32.5652062 L0,32.5652062 L0,32.5652062 L0,11 C-7.43989126e-16,4.92486775 4.92486775,2.89234053e-15 11,0 Z" fill="#258AFB"/>
        <path d="M13.6050553,6.30294314 L38.6628633,6.30294314 C40.403373,6.30294314 41.8143348,7.71390502 41.8143348,9.45441471 C41.8143348,11.1949244 40.403373,12.6058863 38.6628633,12.6058863 L25.8789086,12.6058863 L25.8789086,12.6058863 L13.6050553,12.6058863 C11.8645456,12.6058863 10.4535837,11.1949244 10.4535837,9.45441471 C10.4535837,7.71390502 11.8645456,6.30294314 13.6050553,6.30294314 Z" fill="#F0F7FF" opacity=".24637422"/>
        <path d="M13.6050553,18.9088294 L62.7061058,18.9088294 C64.4466155,18.9088294 65.8575774,20.3197913 65.8575774,22.060301 C65.8575774,23.8008107 64.4466155,25.2117726 62.7061058,25.2117726 L37.7049911,25.2117726 L37.7049911,25.2117726 L13.6050553,25.2117726 C11.8645456,25.2117726 10.4535837,23.8008107 10.4535837,22.060301 C10.4535837,20.3197913 11.8645456,18.9088294 13.6050553,18.9088294 Z" fill="#F0F7FF" opacity=".24637422"/>
      </g>
      <g filter="url(#3o7oef0edq)" transform="translate(20.03168 122.598423)">
        <path d="M11,0 L65.3111611,0 C71.3862933,6.6037315e-16 76.3111611,4.92486775 76.3111611,11 L76.3111611,21.5652062 C76.3111611,27.6403385 71.3862933,32.5652062 65.3111611,32.5652062 L0,32.5652062 L0,32.5652062 L0,11 C1.03236771e-15,4.92486775 4.92486775,2.89234053e-15 11,0 Z" fill="#258AFB"/>
        <path d="M13.9535837,6.30294314 L63.4029357,6.30294314 C65.3359324,6.30294314 66.9029357,7.86994651 66.9029357,9.80294314 L66.9029357,10.1563768 C66.9029357,12.0893734 65.3359324,13.6563768 63.4029357,13.6563768 L38.2191686,13.6563768 L38.2191686,13.6563768 L13.9535837,13.6563768 C12.0205871,13.6563768 10.4535837,12.0893734 10.4535837,10.1563768 L10.4535837,9.80294314 C10.4535837,7.86994651 12.0205871,6.30294314 13.9535837,6.30294314 Z" fill="#F0F7FF" opacity=".24805124"/>
        <path d="M13.9535837,18.9088294 L48.7679185,18.9088294 C50.7009152,18.9088294 52.2679185,20.4758328 52.2679185,22.4088294 L52.2679185,22.7622631 C52.2679185,24.6952597 50.7009152,26.2622631 48.7679185,26.2622631 L31.0206836,26.2622631 L31.0206836,26.2622631 L13.9535837,26.2622631 C12.0205871,26.2622631 10.4535837,24.6952597 10.4535837,22.7622631 L10.4535837,22.4088294 C10.4535837,20.4758328 12.0205871,18.9088294 13.9535837,18.9088294 Z" fill="#F0F7FF" opacity=".24805124"/>
      </g>
      <g filter="url(#kwkt7eh6or)" transform="matrix(-1 0 0 1 137.360089 72.792814)">
        <path d="M11,0 L65.3111611,0 C71.3862933,-1.11598369e-15 76.3111611,4.92486775 76.3111611,11 L76.3111611,21.5652062 C76.3111611,27.6403385 71.3862933,32.5652062 65.3111611,32.5652062 L0,32.5652062 L0,32.5652062 L0,11 C-7.43989126e-16,4.92486775 4.92486775,1.11598369e-15 11,0 Z" fill="#FFBF74"/>
        <path d="M13.6050553,6.30294314 L38.6628633,6.30294314 C40.403373,6.30294314 41.8143348,7.71390502 41.8143348,9.45441471 C41.8143348,11.1949244 40.403373,12.6058863 38.6628633,12.6058863 L25.8789086,12.6058863 L25.8789086,12.6058863 L13.6050553,12.6058863 C11.8645456,12.6058863 10.4535837,11.1949244 10.4535837,9.45441471 C10.4535837,7.71390502 11.8645456,6.30294314 13.6050553,6.30294314 Z" fill="#FFF8F0" opacity=".25206866"/>
        <path d="M13.6050553,18.9088294 L62.7061058,18.9088294 C64.4466155,18.9088294 65.8575774,20.3197913 65.8575774,22.060301 C65.8575774,23.8008107 64.4466155,25.2117726 62.7061058,25.2117726 L37.7049911,25.2117726 L37.7049911,25.2117726 L13.6050553,25.2117726 C11.8645456,25.2117726 10.4535837,23.8008107 10.4535837,22.060301 C10.4535837,20.3197913 11.8645456,18.9088294 13.6050553,18.9088294 Z" fill="#FFF8F0" opacity=".25206866"/>
      </g>
    </g>
    <g filter="url(#tev91vq9gs)" transform="translate(479.912239 458.55758)">
      <path d="M8.00175468,16.2826031 L61.8270804,16.2826031 C65.8842748,16.2826031 69.2990591,19.3197047 69.7724398,23.3491882 L75.3192009,70.5640002 C75.8347117,74.9521011 72.6953572,78.9272638 68.3072564,79.4427746 C67.9974494,79.4791705 67.6857789,79.4974152 67.3738414,79.4974152 L18.7703619,79.4974152 C15.0374598,79.4974152 11.8007294,76.9157895 10.9706568,73.2763476 L0.2020496,26.0615355 C-0.780427653,21.7538774 1.91516408,17.4653753 6.22282225,16.482898 C6.80643866,16.3497886 7.40315112,16.2826031 8.00175468,16.2826031 Z" fill="url(#pejmls898t)"/>
      <path d="M20.0441295,8 C20.0441295,3.581722 23.6258515,-7.65539184e-17 28.0441295,0 L65.531623,0 C68.8655887,1.16391727e-15 71.8500206,2.067616 73.0214973,5.18898902 L75.1891295,10.965 L128.41865,10.9651607 C132.836928,10.9651607 136.41865,14.5468827 136.41865,18.9651607 L136.41865,71.4974152 C136.41865,75.9156932 132.836928,79.4974152 128.41865,79.4974152 L28.0441295,79.4974152 C23.6258515,79.4974152 20.0441295,75.9156932 20.0441295,71.4974152 L20.0441295,8 Z" fill="url(#szjh3vgkvu)"/>
    </g>
    <g transform="translate(106 399.173969)">
      <use fill="#000" filter="url(#zpox8lgh0v)" xlink:href="#hvu4rwdvew"/>
      <use fill="#FFF" xlink:href="#hvu4rwdvew"/>
    </g>
    <g transform="translate(123.170011 420.245573)">
      <path fill="#148FFD" d="M9.85036926 0A9.85036926 10.0569019 0 1 0 9.85036926 20.1138038A9.85036926 10.0569019 0 1 0 9.85036926 0Z"/>
      <rect fill="#BBDFFF" x="34.2621539" width="49.6801232" height="6.99610568" rx="3.49805284"/>
      <rect fill="#BBDFFF" x="34.2621539" y="13.1176982" width="30.8359386" height="6.99610568" rx="3.49805284"/>
    </g>
    <g transform="translate(123.170011 501.658589)">
      <path fill="#148FFD" d="M9.85036926 0A9.85036926 10.0968103 0 1 0 9.85036926 20.1936206A9.85036926 10.0968103 0 1 0 9.85036926 0Z"/>
      <rect fill="#BBDFFF" x="34.2621539" y=".8779835" width="49.6801232" height="7.02386801" rx="3.511934"/>
      <rect fill="#BBDFFF" x="34.2621539" y="14.047736" width="30.8359386" height="7.02386801" rx="3.511934"/>
    </g>
    <g transform="translate(123.170011 461.430981)">
      <path fill="#FFB424" d="M9.89426574 0A9.89426574 10.0968103 0 1 0 9.89426574 20.1936206A9.89426574 10.0968103 0 1 0 9.89426574 0Z"/>
      <rect fill="#FFE8BB" x="34.4148373" y=".8779835" width="40.4374339" height="7.02386801" rx="3.511934"/>
      <rect fill="#FFE8BB" x="34.4148373" y="14.047736" width="53.3429979" height="7.02386801" rx="3.511934"/>
    </g>
    <g>
      <path d="M100.357789,55.0133128 C95.5365087,59.4100335 92.761419,64.8970703 92.743855,71.4832877 C92.7262909,79.5587161 92.8755836,89.3006439 87.1761097,95.4525075 C79.6587762,103.563393 77.2788726,107.073678 75.1536451,121.495987 C72.9054706,136.760408 78.6664179,148.381579 81.3097794,150.491296 C83.9531409,152.601013 86.3769541,153.292433 90.1004931,150.78382 C98.0130138,145.456342 99.4005595,133.835171 106.22412,131.255643 C115.603224,127.701036 122.936137,124.447817 125.553153,117.436111 C127.915492,111.115825 128.407281,104.804403 134.370212,101.365033 C146.68248,94.2646835 149.31706,84.2036384 147.859259,73.5486822 C146.260948,61.900918 150.950499,59.6050496 159.293335,52.8326817 C170.472734,43.7555807 168.382635,32.4180683 160.074927,24.9188225 C155.402939,20.708254 146.480496,18.2528274 137.241904,22.622955 C123.032738,29.3510012 131.559994,40.8658003 114.619647,46.9644775 L100.357789,55.0133128 Z" fill="#CCE8BD" fill-rule="nonzero" transform="translate(654 351)"/>
      <path d="M160.071782,25.2717598 C159.070678,24.3700368 157.858817,23.556717 156.497667,22.8583235 C154.196886,25.1921965 152.862081,28.3835903 152.449346,33.8911773 C151.659001,44.5880947 146.978403,53.8351823 133.463507,58.149311 C126.921209,60.2356515 125.12098,66.2825045 121.494175,71.9492181 C117.472199,78.2347628 109.630222,79.8525607 99.7157854,81.320072 C96.5807514,81.7886145 94.0955558,84.1313282 91.5664525,86.9249029 C90.7673269,90.1604997 89.4413033,93.1662447 87.1756486,95.6062032 C79.6585916,103.695195 77.2787756,107.196004 75.1536263,121.57938 C72.9055346,136.802596 78.6662698,148.392397 81.309534,150.496418 C83.9527982,152.60044 86.3765222,153.289994 90.0999243,150.788153 C98.0121537,145.475055 99.3996475,133.885255 106.222958,131.31269 C115.601715,127.767679 122.934359,124.523242 125.551278,117.530464 C127.913531,111.227239 128.405301,104.932854 134.368014,101.502769 C146.679829,94.4215856 149.314312,84.3877005 147.856564,73.7615057 C146.258311,62.1451839 150.94769,59.855513 159.290219,53.1014267 C170.477988,44.0576686 168.379184,32.7507618 160.071782,25.2717598 Z" fill="url(#g1mpbs2uwx)" fill-rule="nonzero" transform="translate(654 351)"/>
      <path d="M1.75558234,121.703581 C2.90088246,127.715008 7.56137296,133.636845 12.6623635,137.327915 C22.7586246,144.620464 33.1103757,143.222875 39.9293164,146.027012 C46.7482571,148.83115 50.5277475,154.726111 55.584688,155.845974 C59.5756185,156.732906 62.2890988,155.863892 63.6634589,154.1617 C67.0729292,149.933096 67.1962693,137.605641 57.8576683,128.628817 C48.5190673,119.651992 37.9118262,121.613992 28.8287152,116.561169 C19.7456042,111.508346 14.4419837,101.133932 5.35006272,107.306619 C5.35006272,107.315578 -0.420487891,110.227222 1.75558234,121.703581 Z" fill="#C3E1B9" fill-rule="nonzero" transform="translate(654 351)"/>
      <path d="M57.8552425,129.174382 C52.1637359,123.810554 45.9964687,122.432287 39.9965989,121.054019 C39.8292016,123.819332 39.053888,126.110591 37.9085384,127.506416 C36.5341188,129.174382 33.8205213,130.025922 29.8294184,129.156824 C24.7810697,128.059478 20.9926055,122.283047 14.1733701,119.535292 C10.6492175,118.113132 6.17354359,117.797096 1.28378177,116.831431 C1.21329871,118.41161 1.33664405,120.246373 1.75954238,122.397171 C2.904892,128.287725 7.5655839,134.090493 12.6667948,137.707346 C22.7634923,144.853265 33.1156908,143.483776 39.9349262,146.231531 C46.7541616,148.979287 50.5338153,154.755717 55.5909744,155.853063 C59.5820773,156.722162 62.2956749,155.870621 63.6700944,154.202654 C67.0709017,150.050296 67.1942471,137.970709 57.8552425,129.174382 Z" fill="url(#7bmw0b583y)" fill-rule="nonzero" transform="translate(654 351)"/>
      <path d="M61.5621691,154.928637 C61.4063618,154.928637 61.2505545,154.840092 61.1726508,154.689566 L61.0774353,154.494767 C60.9995316,154.34424 60.9995316,154.34424 60.904316,154.16715 L60.8091005,153.998914 C59.830977,152.210304 57.1476294,147.66794 53.3909426,144.055301 C45.3062758,136.272187 33.8630964,130.941772 26.2891312,127.417678 C24.0126136,126.355137 22.0477106,125.443122 20.7406606,124.708198 C15.3133736,121.671102 9.07242626,116.393814 9.01183456,116.340687 C8.83005936,116.181305 8.80409145,115.906816 8.95124277,115.720871 C9.10705005,115.534927 9.37538486,115.508363 9.55716005,115.65889 C9.61775175,115.712017 15.7894514,120.936177 21.1474908,123.929001 C22.4285728,124.646217 24.3761639,125.549377 26.6440255,126.603063 C34.2699264,130.153722 45.7823536,135.519553 53.9795479,143.400067 C57.8314502,147.101252 60.5667336,151.741014 61.5621691,153.556189 L61.6573846,153.724424 C61.7612561,153.919223 61.7612561,153.919223 61.8478157,154.087459 L61.9430313,154.282259 C62.0555588,154.503621 61.9689992,154.769256 61.7526002,154.875511 C61.7006644,154.910928 61.6314167,154.928637 61.5621691,154.928637 Z" fill="#FFF" fill-rule="nonzero" transform="translate(654 351)"/>
      <path d="M66.1583874,167.627706 C66.1493506,167.570883 65.5619589,161.490827 62.1189394,154.350077 L61.9924242,154.094373 L62.7966991,153.65873 L62.9232142,153.923904 C66.4475649,161.235124 67.0349567,167.277298 67.0530303,167.533001 L66.1583874,167.627706 Z" fill="#A7C4B8" fill-rule="nonzero" transform="translate(654 351)"/>
      <path fill="#A7C4B8" fill-rule="nonzero" transform="rotate(-5.239 4237.67540096 -6811.84931384)" d="M73.8951505 153.935964L74.7707882 153.934892 74.7543748 167.509665 73.878737 167.510738z"/>
      <path fill="#A7C4B8" fill-rule="nonzero" transform="rotate(-81.86 611.2540238 -42.68798747)" d="M73.5031348 158.493909L90.2249992 158.462732 90.2233447 159.338508 73.5014808 159.369685z"/>
      <path d="M12.3321684,51.3105237 C19.7508354,58.4663345 22.1543099,65.5248482 20.8701431,80.9067468 C19.4992081,97.2173967 28.1499812,106.911796 41.538289,115.040586 C51.8897157,121.320717 47.4992531,131.97925 58.1803982,140.912957 C64.2020998,145.937062 68.8875737,157.488965 75.1435491,152.385253 C81.9374862,146.839278 89.3908601,115.801278 81.1131898,103.842493 C77.4168716,98.5088045 69.2433226,94.0596407 72.7487513,83.5780141 C76.2541799,73.0963865 72.3409415,58.8466806 65.3821451,54.0171715 C58.4233487,49.1876625 55.672802,43.5709255 53.5036011,28.2951695 C51.3344002,13.0194144 28.8007414,-8.39494794 9.51220723,3.41346719 C-10.9910794,15.9471939 7.27359195,46.4279429 12.3321684,51.3105237 Z" fill="#C2E3C5" fill-rule="nonzero" transform="translate(654 351)"/>
      <path d="M82.3112333,103.869963 C78.5414769,98.5392155 70.2055366,94.0925059 73.7806109,83.6166583 C77.355685,73.1319708 73.3646988,58.8989632 66.2676456,54.0721165 C59.1705925,49.2452706 56.3653981,43.6316307 54.1530998,28.3642991 C52.2593724,15.2540192 34.9238024,-2.55050131 17.7121212,0.304940736 C19.7208881,6.83797982 22.5437808,10.4094919 27.2780992,13.618549 C34.3751524,18.4453958 38.3749879,32.6872432 34.7910645,43.1630908 C31.2071412,53.6389385 39.5519306,58.0856481 43.321687,63.4163958 C51.7638175,75.3597455 44.1623603,106.389471 37.2334419,111.932388 C37.2068943,111.958909 37.1803467,111.967749 37.1537991,111.99427 C38.6758604,113.046275 40.2775644,114.071759 41.9589112,115.061881 C52.515999,121.338549 48.0383071,131.991204 58.9316642,140.919985 C65.0730045,145.941319 69.8515689,157.486853 76.2318374,152.385955 C83.1430575,146.843038 90.744515,115.813313 82.3112333,103.869963 Z" fill="url(#2jur4qrecz)" fill-rule="nonzero" transform="translate(654 351)"/>
      <path d="M22.7727273,12.6990686 C28.9316434,37.4162857 34.3396918,54.7569517 38.9968726,64.7210666 C60.4861821,110.697798 73.1781463,137.183553 73.3787879,153.65873" stroke="#FFF" transform="translate(654 351)"/>
      <path d="M84.7651515,151.118917 C98.368735,114.912143 108.700806,92.9854411 115.761364,85.3388098 C126.352201,73.868863 144.112224,42.901846 146.757576,34.2874853" stroke="#FFF" transform="translate(654 351)"/>
      <g transform="translate(702.075758 518.627706)">
        <mask id="9e0w3y3mlC" fill="#fff">
          <use xlink:href="#pkjchom5uA"/>
        </mask>
        <use fill="#FAD197" xlink:href="#pkjchom5uA"/>
        <path fill-opacity=".79743157" fill="#E88B07" filter="url(#zjl2h6m9wB)" mask="url(#9e0w3y3mlC)" d="M-1.14125392 7.05318487H54.78018808V15.28190055H-1.14125392z"/>
        <path fill="#FFEFD7" mask="url(#9e0w3y3mlC)" d="M0 21.1595546H52.4976803V30.56380109H0z"/>
      </g>
      <path d="M53.0757576,166.357799 L93.6818182,166.357799 C96.4432419,166.357799 98.6818182,168.596375 98.6818182,171.357799 L98.6818182,179.056868 L98.6818182,179.056868 L48.0757576,179.056868 L48.0757576,171.357799 C48.0757576,168.596375 50.3143338,166.357799 53.0757576,166.357799 Z" fill="#FFD190" transform="translate(654 351)"/>
    </g>
    <rect fill="url(#ok1d8iduvD)" x="52" y="562" width="760" height="11" rx="5.5"/>
    <g>
      <g filter="url(#jmdp7u2jpE)" transform="translate(349.745946 54)" fill-rule="nonzero">
        <path d="M172.053842,118.613291 L5.75179992,118.613291 C2.57580606,118.613291 0,116.002785 0,112.784005 L0,5.82928568 C0,2.61050619 2.57580606,0 5.75179992,0 L172.053842,0 C175.229835,0 177.805641,2.61050619 177.805641,5.82928568 L177.805641,112.784005 C177.805641,116.002785 175.229835,118.613291 172.053842,118.613291 Z" fill="#FFF"/>
        <path d="M172.348744,118.102393 L5.76165858,118.102393 C2.58022102,118.102393 0,115.503131 0,112.298216 L172.348744,0 C175.530181,0 178.110402,2.59926208 178.110402,5.80417746 L178.110402,112.298216 C178.110402,115.503131 175.530181,118.102393 172.348744,118.102393 Z" opacity=".5" transform="translate(.062627 .067012)" fill="url(#ohgsz1vupF)"/>
        <path d="M0,17.0974113 L0,5.9491749 C0,2.66419571 2.57580604,0 5.75179989,0 L172.053841,0 C175.229834,0 177.805641,2.66419571 177.805641,5.9491749 L177.805641,17.0974113 L0,17.0974113 Z" fill="#B2968E"/>
        <path fill="#FFA88A" d="M9.52530218 5.34294105A3.17510073 3.20576462 0 1 0 9.52530218 11.75447029A3.17510073 3.20576462 0 1 0 9.52530218 5.34294105Z"/>
        <path fill="#FFE197" d="M19.0506044 5.34294105A3.17510073 3.20576462 0 1 0 19.0506044 11.75447029A3.17510073 3.20576462 0 1 0 19.0506044 5.34294105Z"/>
        <path fill="#BDD184" d="M27.5175396 5.34294105A3.17510073 3.20576462 0 1 0 27.5175396 11.75447029A3.17510073 3.20576462 0 1 0 27.5175396 5.34294105Z"/>
        <path d="M59.840789,0 L0,0 L0,16.978571 L65.6358968,16.978571 L65.6358968,5.90782349 C65.6358968,2.64567747 63.0406963,0 59.840789,0 Z" opacity=".5" transform="translate(112.375863 .074447)" fill="url(#n4fkowsboG)"/>
      </g>
      <g opacity=".18537685" transform="translate(350.275427 71.501521)" fill="#B7DDFF">
        <rect y="19.9656454" width="177.905613" height="4.20329377" rx="2.10164688"/>
        <path d="M9.38775758,47.7961895 L104.980137,47.7961895 C106.149834,47.7961895 107.098061,48.7444164 107.098061,49.9141135 C107.098061,51.0838106 106.149834,52.0320374 104.980137,52.0320374 L9.38775758,52.0320374 C8.21806047,52.0320374 7.26983361,51.0838106 7.26983361,49.9141135 C7.26983361,48.7444164 8.21806047,47.7961895 9.38775758,47.7961895 Z" transform="rotate(90 57.183947 49.914113)"/>
        <path d="M-20.263178,47.7961895 L75.3292011,47.7961895 C76.4988982,47.7961895 77.447125,48.7444164 77.447125,49.9141135 C77.447125,51.0838106 76.4988982,52.0320374 75.3292011,52.0320374 L-20.263178,52.0320374 C-21.4328751,52.0320374 -22.3811019,51.0838106 -22.3811019,49.9141135 C-22.3811019,48.7444164 -21.4328751,47.7961895 -20.263178,47.7961895 Z" transform="rotate(90 27.533012 49.914113)"/>
        <path d="M39.0386931,47.7961895 L134.631072,47.7961895 C135.800769,47.7961895 136.748996,48.7444164 136.748996,49.9141135 C136.748996,51.0838106 135.800769,52.0320374 134.631072,52.0320374 L39.0386931,52.0320374 C37.868996,52.0320374 36.9207691,51.0838106 36.9207691,49.9141135 C36.9207691,48.7444164 37.868996,47.7961895 39.0386931,47.7961895 Z" transform="rotate(90 86.834883 49.914113)"/>
        <path d="M68.6896286,47.7961895 L164.282008,47.7961895 C165.451705,47.7961895 166.399932,48.7444164 166.399932,49.9141135 C166.399932,51.0838106 165.451705,52.0320374 164.282008,52.0320374 L68.6896286,52.0320374 C67.5199315,52.0320374 66.5717047,51.0838106 66.5717047,49.9141135 C66.5717047,48.7444164 67.5199315,47.7961895 68.6896286,47.7961895 Z" transform="rotate(90 116.485818 49.914113)"/>
        <path d="M98.3405642,47.7961895 L193.932943,47.7961895 C195.10264,47.7961895 196.050867,48.7444164 196.050867,49.9141135 C196.050867,51.0838106 195.10264,52.0320374 193.932943,52.0320374 L98.3405642,52.0320374 C97.1708671,52.0320374 96.2226402,51.0838106 96.2226402,49.9141135 C96.2226402,48.7444164 97.1708671,47.7961895 98.3405642,47.7961895 Z" transform="rotate(90 146.136754 49.914113)"/>
        <path d="M127.9915,47.7961895 L223.583879,47.7961895 C224.753576,47.7961895 225.701803,48.7444164 225.701803,49.9141135 C225.701803,51.0838106 224.753576,52.0320374 223.583879,52.0320374 L127.9915,52.0320374 C126.821803,52.0320374 125.873576,51.0838106 125.873576,49.9141135 C125.873576,48.7444164 126.821803,47.7961895 127.9915,47.7961895 Z" transform="rotate(90 175.787689 49.914113)"/>
        <rect y="44.1345846" width="177.905613" height="4.20329377" rx="2.10164688"/>
        <rect y="67.2527003" width="177.905613" height="4.20329377" rx="2.10164688"/>
      </g>
      <path stroke="url(#ew0h6lxo4H)" stroke-width="5" stroke-linecap="round" stroke-linejoin="round" d="M55.4162162 85.0073879L72.4633647 68.2170887 101.902791 85.0073879 131.342218 47.9630183 159.818172 82.8874209 225.443243 10.0008692" transform="translate(317 54)"/>
      <path fill="#FFB755" d="M226.702703 3.7503259500000006A6.2972973 6.87559755 0 1 0 226.702703 17.50152105A6.2972973 6.87559755 0 1 0 226.702703 3.7503259500000006Z" transform="translate(317 54)"/>
      <path fill="#2857AC" d="M30.9840506 8.662515900000002A30.9840506 31.576572 0 1 0 30.9840506 71.8156599A30.9840506 31.576572 0 1 0 30.9840506 8.662515900000002Z" transform="translate(317 112.18434)"/>
      <g transform="rotate(-89 251.34660794 -99.27726568)">
        <mask id="lrpr9ahx9J" fill="#fff">
          <use xlink:href="#l450dzoqqI"/>
        </mask>
        <use fill="#48AAFE" transform="rotate(-180 20.480983 20.337453)" xlink:href="#l450dzoqqI"/>
        <path fill="#94E79B" mask="url(#lrpr9ahx9J)" d="M40.9619652 25.6719704L-4.71444617 -2.9153087 28.2809564 -7.76497813 49.4758971 -5.62419359 39.7071617 29.703098z"/>
      </g>
      <path d="M3.23312035,26.8737108 L42.8974831,12.3898884 C44.2689949,18.3561453 44.9541566,23.1796743 44.9529684,26.8604754 C44.951778,30.5412765 31.045162,30.5456883 3.23312035,26.8737108 Z" fill="#94E79B" transform="rotate(-89 239.67285088 -84.19146279)"/>
    </g>
    <g fill-rule="nonzero">
      <path d="M1.03790328,0.00854711693 C2.48950071,-0.367881047 132.306196,11.8147032 132.306196,11.8147032 L103.966288,35.3414634 L1.03790328,0.00854711693 Z" fill="#CCE6FF" transform="scale(-1 1) rotate(-3 1805.94573142 15566.26951395)"/>
      <path fill="#91C7E4" d="M103.5 73.7151954L102.275644 35.3813663 -1.13686838e-13 0.507878334 31.4642684 27.3803821z" transform="scale(-1 1) rotate(-3 1805.94573142 15566.26951395)"/>
      <path d="M103.5 71.945122L102.810288 33.9299883 0 0 31.3925626 26.4930254z" opacity=".55870129" transform="scale(-1 1) rotate(-3 1815.6432726 15565.38447914)" fill="url(#11ng8tqb2K)"/>
      <path fill="#CADDEA" d="M83.8970682 47.8992419L103.587312 73.1431443 73.2946292 54.2992042z" transform="scale(-1 1) rotate(-3 1805.94573142 15566.26951395)"/>
      <path d="M8.9719358 -8.75357163e-14L29.0304878 23.9817073 0 7.08900491z" opacity=".5" transform="scale(-1 1) rotate(-3 2684.5286376 14093.98302356)" fill="url(#ynpihu6hoL)"/>
      <path fill="#CCE6FF" d="M84.5461526 47.9884364L52.8331224 74.5141183 1.24127459 0.0446061158z" transform="scale(-1 1) rotate(-3 1805.94573142 15566.26951395)"/>
    </g>
  </g>
</svg>
